# Blender v2.69 (sub 0) OBJ File: ''
# www.blender.org
o Cube
v 0.246896 -1.544733 1.048795
v 0.246896 -1.544733 1.495626
v -0.246896 -1.544733 1.495626
v -0.246896 -1.544733 1.048795
v 0.246896 -1.050940 1.048795
v 0.246896 -1.050940 1.495626
v -0.246896 -1.050940 1.495626
v -0.246896 -1.050940 1.048795
v 0.246896 -0.854557 1.048795
v 0.246896 -0.854557 1.495626
v -0.246896 -0.854557 1.495626
v -0.246896 -0.854557 1.048795
v 0.246896 -0.653905 1.048795
v 0.246896 -0.653905 1.495626
v -0.246896 -0.653905 1.495626
v -0.246896 -0.653905 1.048795
v 0.246896 -0.457522 1.048795
v 0.246896 -0.457522 1.495626
v -0.246896 -0.457522 1.495626
v -0.246896 -0.457522 1.048795
v 0.246896 -0.256869 1.048795
v 0.246896 -0.256869 1.495626
v -0.246896 -0.256869 1.495626
v -0.246896 -0.256869 1.048795
v 0.246896 -0.051948 1.048795
v 0.246896 -0.051948 1.495626
v -0.246896 -0.051948 1.495626
v -0.246896 -0.051948 1.048795
v 0.246896 0.144435 1.048795
v 0.246896 0.144435 1.495626
v -0.246896 0.144435 1.495626
v -0.246896 0.144435 1.048795
v 0.246896 0.336549 1.048795
v 0.246896 0.336549 1.495626
v -0.246896 0.336549 1.495626
v -0.246896 0.336549 1.048795
v 0.246896 0.772008 0.959142
v 0.246896 0.874468 1.495626
v -0.246896 0.874468 1.495626
v -0.246896 0.772008 0.959142
v 0.246896 0.976929 0.895104
v 0.246896 1.109274 1.495626
v -0.246896 1.109274 1.495626
v -0.246896 0.976929 0.895104
v 0.246896 1.156236 0.664567
v 0.246896 1.224543 1.495626
v -0.246896 1.224543 1.495626
v -0.246896 1.156236 0.664567
v 0.246896 1.250158 0.186417
v 0.246896 1.352619 1.495626
v -0.246896 1.352619 1.495626
v -0.246896 1.250158 0.186417
v 0.246896 1.442272 1.495626
v -0.246896 1.442272 1.495626
v 0.246896 1.544733 1.495626
v -0.246896 1.544733 1.495626
v 0.246896 -1.544733 -1.048795
v 0.246896 -1.544733 -1.495626
v -0.246896 -1.544733 -1.495626
v -0.246896 -1.544733 -1.048795
v 0.246896 -1.050940 -1.048795
v 0.246896 -1.050940 -1.495626
v -0.246896 -1.050940 -1.495626
v -0.246896 -1.050940 -1.048795
v 0.246896 -0.854557 -1.048795
v 0.246896 -0.854557 -1.495626
v -0.246896 -0.854557 -1.495626
v -0.246896 -0.854557 -1.048795
v 0.246896 -0.653905 -1.048795
v 0.246896 -0.653905 -1.495626
v -0.246896 -0.653905 -1.495626
v -0.246896 -0.653905 -1.048795
v 0.246896 -0.457522 -1.048795
v 0.246896 -0.457522 -1.495626
v -0.246896 -0.457522 -1.495626
v -0.246896 -0.457522 -1.048795
v 0.246896 -0.256869 -1.048795
v 0.246896 -0.256869 -1.495626
v -0.246896 -0.256869 -1.495626
v -0.246896 -0.256869 -1.048795
v 0.246896 -0.051948 -1.048795
v 0.246896 -0.051948 -1.495626
v -0.246896 -0.051948 -1.495626
v -0.246896 -0.051948 -1.048795
v 0.246896 0.144435 -1.048795
v 0.246896 0.144435 -1.495626
v -0.246896 0.144435 -1.495626
v -0.246896 0.144435 -1.048795
v 0.246896 0.336549 -1.048795
v 0.246896 0.336549 -1.495626
v -0.246896 0.336549 -1.495626
v -0.246896 0.336549 -1.048795
v 0.246896 0.772008 -0.959142
v 0.246896 0.874468 -1.495626
v -0.246896 0.874468 -1.495626
v -0.246896 0.772008 -0.959142
v 0.246896 0.976929 -0.895104
v 0.246896 1.109274 -1.495626
v -0.246896 1.109274 -1.495626
v -0.246896 0.976929 -0.895104
v 0.246896 1.156236 -0.664567
v 0.246896 1.224543 -1.495626
v -0.246896 1.224543 -1.495626
v -0.246896 1.156236 -0.664567
v 0.246896 1.250158 -0.186417
v 0.246896 1.352619 -1.495626
v -0.246896 1.352619 -1.495626
v -0.246896 1.250158 -0.186417
v 0.246896 1.258696 0.000000
v 0.246896 1.442272 -1.495626
v -0.246896 1.442272 -1.495626
v -0.246896 1.258696 0.000000
v 0.246896 1.544733 0.000000
v 0.246896 1.544733 -1.495626
v -0.246896 1.544733 -1.495626
v -0.246896 1.544733 0.000000
vt 0.721497 0.622071
vt 0.721497 0.712041
vt 0.622071 0.622071
vt 0.099426 0.712041
vt 0.099426 0.622071
vt 0.138968 0.712041
vt 0.089970 0.000000
vt 0.089970 0.099426
vt 0.000000 0.000000
vt 0.701721 0.000000
vt 0.701721 0.099406
vt 0.602295 0.000000
vt 0.000000 0.622071
vt 0.000000 0.712041
vt 0.900574 0.099405
vt 0.900574 0.000000
vt 1.000000 0.099404
vt 0.138968 0.622071
vt 0.179370 0.712041
vt 0.602295 0.099406
vt 0.602295 0.138940
vt 0.900574 0.138938
vt 0.000000 0.099426
vt 0.000000 0.138968
vt 0.179370 0.622071
vt 0.218912 0.712041
vt 0.701721 0.138940
vt 0.602295 0.179334
vt 1.000000 0.138938
vt 0.900574 0.179331
vt 0.089970 0.138968
vt 0.000000 0.179370
vt 0.218912 0.622071
vt 0.259314 0.712041
vt 0.701721 0.179334
vt 0.602295 0.218868
vt 1.000000 0.179331
vt 0.900574 0.218865
vt 0.089970 0.179370
vt 0.000000 0.218912
vt 0.259314 0.622071
vt 0.300576 0.712041
vt 0.701721 0.218868
vt 0.602295 0.259262
vt 1.000000 0.218865
vt 0.900574 0.259258
vt 0.089970 0.218912
vt 0.000000 0.259314
vt 0.300576 0.622071
vt 0.340118 0.712041
vt 0.701721 0.259262
vt 0.602295 0.300515
vt 1.000000 0.259258
vt 0.900574 0.300510
vt 0.089970 0.259314
vt 0.000000 0.300575
vt 0.340118 0.622071
vt 0.378800 0.712041
vt 0.701721 0.300515
vt 0.602295 0.340049
vt 1.000000 0.300510
vt 0.900574 0.340044
vt 0.089970 0.300575
vt 0.000000 0.340118
vt 0.378800 0.622071
vt 0.487111 0.622071
vt 0.701721 0.340049
vt 0.602295 0.378724
vt 1.000000 0.340043
vt 0.900574 0.378718
vt 0.089970 0.340118
vt 0.000000 0.378800
vt 0.466481 0.730093
vt 0.534390 0.622071
vt 0.701721 0.378724
vt 0.602295 0.487013
vt 1.000000 0.378718
vt 0.900574 0.466756
vt 0.089970 0.378800
vt 0.000000 0.487111
vt 0.507742 0.742987
vt 0.543846 0.789406
vt 0.701721 0.487013
vt 0.602295 0.534283
vt 1.000000 0.466756
vt 0.900574 0.508278
vt 0.108022 0.466481
vt 0.000000 0.534390
vt 0.557600 0.622071
vt 0.562757 0.885683
vt 0.701721 0.534283
vt 0.602295 0.557488
vt 0.801148 0.602295
vt 0.900574 0.602295
vt 0.801148 0.648714
vt 0.120916 0.507742
vt 0.167336 0.543846
vt 0.583388 0.622071
vt 0.601440 0.622071
vt 0.701721 0.557488
vt 0.602295 0.583271
vt 0.900574 0.648714
vt 0.801148 0.744991
vt 0.000000 0.557600
vt 0.263612 0.562757
vt 0.564477 0.923218
vt 0.701721 0.583271
vt 0.602295 0.601319
vt 0.900574 0.744991
vt 0.801148 0.782526
vt 0.000000 0.583388
vt 0.000000 0.601440
vt 0.801148 0.301148
vt 0.900574 0.301148
vt 0.701721 0.601319
vt 0.602295 0.621946
vt 0.301148 0.564477
vt 0.622071 0.712041
vt 0.622071 0.802011
vt 0.099426 1.134395
vt 0.138968 1.134395
vt 0.099426 1.224366
vt 0.512325 0.000000
vt 0.512325 0.099426
vt 0.801148 0.000000
vt 0.701721 0.099404
vt 0.000000 1.224366
vt 0.000000 1.134395
vt 1.000000 0.607684
vt 0.900574 0.607684
vt 1.000000 0.508278
vt 0.179370 1.134395
vt 0.138968 1.224366
vt 0.801148 0.099404
vt 0.801148 0.138938
vt 1.000000 0.647218
vt 0.602295 0.099426
vt 0.602295 0.138968
vt 0.218912 1.134395
vt 0.179370 1.224366
vt 0.801148 0.179331
vt 0.701721 0.138938
vt 1.000000 0.687612
vt 0.900574 0.647218
vt 0.602295 0.179370
vt 0.512325 0.138968
vt 0.259314 1.134395
vt 0.218912 1.224366
vt 0.801148 0.218865
vt 0.701721 0.179331
vt 1.000000 0.727146
vt 0.900574 0.687612
vt 0.602295 0.218912
vt 0.512325 0.179370
vt 0.300576 1.134395
vt 0.259314 1.224366
vt 0.801148 0.259258
vt 0.701721 0.218865
vt 1.000000 0.767540
vt 0.900574 0.727146
vt 0.602295 0.259314
vt 0.512325 0.218912
vt 0.340118 1.134395
vt 0.300576 1.224366
vt 0.801148 0.300510
vt 0.701721 0.259258
vt 1.000000 0.808793
vt 0.900574 0.767540
vt 0.602295 0.300575
vt 0.512325 0.259314
vt 0.378800 1.134395
vt 0.340118 1.224366
vt 0.801148 0.340043
vt 0.701721 0.300510
vt 1.000000 0.848327
vt 0.900574 0.808793
vt 0.602295 0.340118
vt 0.512325 0.300575
vt 0.466481 1.116343
vt 0.487111 1.224366
vt 0.801148 0.378718
vt 0.701721 0.340043
vt 1.000000 0.887002
vt 0.900574 0.848327
vt 0.602295 0.378800
vt 0.512325 0.340118
vt 0.507742 1.103449
vt 0.534390 1.224366
vt 0.801148 0.487005
vt 0.701721 0.378718
vt 1.000000 0.975026
vt 0.900574 0.887002
vt 0.602295 0.487111
vt 0.512325 0.378800
vt 0.543846 1.057030
vt 0.801148 0.534274
vt 0.701721 0.487005
vt 1.000000 1.016538
vt 0.900574 0.975026
vt 0.602295 0.534390
vt 0.494273 0.466481
vt 0.562757 0.960754
vt 0.557600 1.224366
vt 0.801148 0.557478
vt 0.701721 0.534274
vt 0.801148 0.962758
vt 0.801148 0.916338
vt 0.900574 0.962757
vt 0.602295 0.557600
vt 0.434960 0.543846
vt 0.601440 1.224366
vt 0.801148 0.583261
vt 0.701721 0.557478
vt 0.801148 0.820062
vt 0.900574 0.916338
vt 0.602295 0.583388
vt 0.338683 0.562757
vt 0.622071 0.923218
vt 0.622071 1.224366
vt 0.801148 0.601309
vt 0.701721 0.583261
vt 0.900574 0.820062
vt 0.602295 0.601440
vt 0.801148 0.621935
vt 0.701721 0.601309
vt 0.779079 0.721497
vt 0.721497 0.721497
vt 0.779079 0.622071
vt 0.602295 0.622071
vt 1.000000 0.000000
vt 0.900574 0.782526
vt 0.701721 0.621946
vt 0.301148 0.622071
vt 0.721497 0.802011
vt 0.378800 1.224366
vt 0.900574 1.016538
vt 0.481379 0.507742
vt 0.583388 1.224366
vt 0.701721 0.621935
vn 0.000000 -1.000000 0.000000
vn -1.000000 0.000000 -0.000000
vn 1.000000 -0.000000 0.000000
vn 0.000000 -0.000000 1.000000
vn 0.000000 0.000000 -1.000000
vn -0.000001 0.000000 1.000000
vn 1.000000 0.000000 0.000001
vn 0.000001 0.000000 -1.000000
vn 0.000000 -0.201653 -0.979457
vn 0.000001 -0.298275 -0.954480
vn -1.000000 -0.000001 -0.000000
vn 0.000000 -0.789352 -0.613941
vn 0.000000 -0.981249 -0.192745
vn 1.000000 0.000001 0.000000
vn 0.000000 -0.998953 -0.045755
vn 0.000000 1.000000 0.000000
vn -0.000001 0.000000 -1.000000
vn 1.000000 0.000000 -0.000001
vn 0.000001 0.000000 1.000000
vn 0.000000 -0.201653 0.979457
vn 0.000001 -0.298275 0.954480
vn 0.000000 -0.789352 0.613941
vn -1.000000 -0.000003 0.000000
vn 0.000000 -0.981249 0.192745
vn 0.000000 -0.998953 0.045755
vn 0.000001 -0.201653 -0.979457
vn 0.000000 -0.298275 -0.954480
vn 0.000000 -0.789352 -0.613940
vn 0.000000 -0.981249 -0.192746
vn 0.000001 -0.201653 0.979457
vn 0.000000 -0.298275 0.954480
vn 0.000000 -0.789352 0.613940
vn 0.000000 -0.981249 0.192746
s off
f 1/1/1 2/2/1 4/3/1
f 8/4/2 7/5/2 12/6/2
f 1/7/3 5/8/3 2/9/3
f 2/10/4 6/11/4 3/12/4
f 3/13/2 7/5/2 4/14/2
f 5/15/5 1/16/5 8/17/5
f 12/6/2 11/18/2 16/19/2
f 7/20/6 6/11/6 11/21/6
f 5/15/5 8/17/5 9/22/5
f 6/23/7 5/8/7 10/24/7
f 16/19/2 15/25/2 20/26/2
f 11/21/6 10/27/6 15/28/6
f 9/22/5 12/29/5 13/30/5
f 10/24/7 9/31/7 14/32/7
f 20/26/2 19/33/2 24/34/2
f 15/28/6 14/35/6 19/36/6
f 13/30/5 16/37/5 17/38/5
f 14/32/7 13/39/7 18/40/7
f 24/34/2 23/41/2 28/42/2
f 19/36/6 18/43/6 23/44/6
f 17/38/5 20/45/5 21/46/5
f 18/40/7 17/47/7 22/48/7
f 28/42/2 27/49/2 32/50/2
f 23/44/6 22/51/6 27/52/6
f 21/46/8 24/53/8 25/54/8
f 22/48/7 21/55/7 26/56/7
f 32/50/2 31/57/2 36/58/2
f 27/52/6 26/59/6 31/60/6
f 25/54/5 28/61/5 29/62/5
f 26/56/7 25/63/7 30/64/7
f 36/58/2 35/65/2 39/66/2
f 31/60/6 30/67/6 35/68/6
f 29/62/5 32/69/5 33/70/5
f 30/64/7 29/71/7 34/72/7
f 40/73/2 39/66/2 43/74/2
f 35/68/4 34/75/4 39/76/4
f 33/70/9 36/77/9 37/78/9
f 34/72/7 33/79/7 38/80/7
f 44/81/2 43/74/2 48/82/2
f 39/76/6 38/83/6 43/84/6
f 37/78/10 40/85/10 41/86/10
f 38/80/3 37/87/3 42/88/3
f 48/82/11 47/89/11 52/90/11
f 43/84/6 42/91/6 47/92/6
f 41/93/12 44/94/12 45/95/12
f 42/88/3 41/96/3 45/97/3
f 52/90/2 51/98/2 54/99/2
f 47/92/4 46/100/4 51/101/4
f 45/95/13 48/102/13 49/103/13
f 46/104/14 45/97/14 49/105/14
f 112/106/2 54/99/2 56/3/2
f 51/101/6 50/107/6 54/108/6
f 49/103/15 52/109/15 109/110/15
f 50/111/3 49/105/3 53/112/3
f 113/113/16 116/114/16 55/93/16
f 54/108/6 53/115/6 56/116/6
f 53/112/3 109/117/3 55/13/3
f 57/118/1 60/2/1 58/119/1
f 64/120/2 68/121/2 63/122/2
f 57/123/3 58/12/3 61/124/3
f 58/10/5 59/125/5 62/126/5
f 59/127/2 60/128/2 63/122/2
f 61/129/4 64/130/4 57/131/4
f 68/121/2 72/132/2 67/133/2
f 63/134/17 67/135/17 62/126/17
f 61/129/4 65/136/4 64/130/4
f 62/137/18 66/138/18 61/124/18
f 72/132/2 76/139/2 71/140/2
f 67/135/17 71/141/17 66/142/17
f 65/136/4 69/143/4 68/144/4
f 66/138/18 70/145/18 65/146/18
f 76/139/2 80/147/2 75/148/2
f 71/141/17 75/149/17 70/150/17
f 69/143/4 73/151/4 72/152/4
f 70/145/18 74/153/18 69/154/18
f 80/147/2 84/155/2 79/156/2
f 75/149/17 79/157/17 74/158/17
f 73/151/4 77/159/4 76/160/4
f 74/153/18 78/161/18 73/162/18
f 84/155/2 88/163/2 83/164/2
f 79/157/17 83/165/17 78/166/17
f 77/159/19 81/167/19 80/168/19
f 78/161/18 82/169/18 77/170/18
f 88/163/2 92/171/2 87/172/2
f 83/165/17 87/173/17 82/174/17
f 81/167/4 85/175/4 84/176/4
f 82/169/18 86/177/18 81/178/18
f 92/171/2 96/179/2 95/180/2
f 87/173/17 91/181/17 86/182/17
f 85/175/4 89/183/4 88/184/4
f 86/177/18 90/185/18 85/186/18
f 96/179/2 100/187/2 99/188/2
f 91/181/5 95/189/5 90/190/5
f 89/183/20 93/191/20 92/192/20
f 90/185/18 94/193/18 89/194/18
f 100/187/2 104/195/2 99/188/2
f 95/189/17 99/196/17 94/197/17
f 93/191/21 97/198/21 96/199/21
f 94/193/3 98/200/3 93/201/3
f 104/195/11 108/202/11 103/203/11
f 99/196/17 103/204/17 98/205/17
f 97/206/22 101/207/22 100/208/22
f 98/200/3 102/209/3 101/210/3
f 108/202/23 112/106/23 111/211/23
f 103/204/5 107/212/5 102/213/5
f 101/207/24 105/214/24 104/215/24
f 102/209/3 106/216/3 105/217/3
f 112/106/2 116/218/2 115/219/2
f 107/212/17 111/220/17 106/221/17
f 105/214/25 109/110/25 108/222/25
f 106/216/3 110/223/3 105/217/3
f 113/113/16 114/125/16 116/114/16
f 111/220/17 115/224/17 110/225/17
f 109/226/4 113/227/4 112/228/4
f 110/223/3 114/229/3 109/117/3
f 2/2/1 3/118/1 4/3/1
f 7/5/2 11/18/2 12/6/2
f 5/8/7 6/23/7 2/9/7
f 6/11/4 7/20/4 3/12/4
f 7/5/2 8/4/2 4/14/2
f 1/16/5 4/230/5 8/17/5
f 11/18/2 15/25/2 16/19/2
f 6/11/4 10/27/4 11/21/4
f 8/17/5 12/29/5 9/22/5
f 5/8/7 9/31/7 10/24/7
f 15/25/2 19/33/2 20/26/2
f 10/27/6 14/35/6 15/28/6
f 12/29/5 16/37/5 13/30/5
f 9/31/7 13/39/7 14/32/7
f 19/33/2 23/41/2 24/34/2
f 14/35/4 18/43/4 19/36/4
f 16/37/5 20/45/5 17/38/5
f 13/39/7 17/47/7 18/40/7
f 23/41/2 27/49/2 28/42/2
f 18/43/6 22/51/6 23/44/6
f 20/45/5 24/53/5 21/46/5
f 17/47/7 21/55/7 22/48/7
f 27/49/2 31/57/2 32/50/2
f 22/51/4 26/59/4 27/52/4
f 24/53/5 28/61/5 25/54/5
f 21/55/7 25/63/7 26/56/7
f 31/57/2 35/65/2 36/58/2
f 26/59/4 30/67/4 31/60/4
f 28/61/5 32/69/5 29/62/5
f 25/63/7 29/71/7 30/64/7
f 40/73/2 36/58/2 39/66/2
f 30/67/6 34/75/6 35/68/6
f 32/69/5 36/77/5 33/70/5
f 29/71/7 33/79/7 34/72/7
f 44/81/2 40/73/2 43/74/2
f 34/75/4 38/83/4 39/76/4
f 36/77/26 40/85/26 37/78/26
f 33/79/3 37/87/3 38/80/3
f 43/74/2 47/89/2 48/82/2
f 38/83/6 42/91/6 43/84/6
f 40/85/27 44/131/27 41/86/27
f 37/87/3 41/96/3 42/88/3
f 47/89/2 51/98/2 52/90/2
f 42/91/6 46/100/6 47/92/6
f 44/94/28 48/102/28 45/95/28
f 46/104/3 42/88/3 45/97/3
f 112/106/11 52/90/11 54/99/11
f 46/100/4 50/107/4 51/101/4
f 48/102/29 52/109/29 49/103/29
f 50/111/3 46/104/3 49/105/3
f 116/218/2 112/106/2 56/3/2
f 50/107/4 53/115/4 54/108/4
f 52/109/15 112/231/15 109/110/15
f 49/105/14 109/117/14 53/112/14
f 116/114/16 56/94/16 55/93/16
f 53/115/4 55/232/4 56/116/4
f 109/117/3 113/233/3 55/13/3
f 60/2/1 59/234/1 58/119/1
f 68/121/2 67/133/2 63/122/2
f 58/12/18 62/137/18 61/124/18
f 59/125/5 63/134/5 62/126/5
f 60/128/2 64/120/2 63/122/2
f 64/130/4 60/86/4 57/131/4
f 72/132/2 71/140/2 67/133/2
f 67/135/5 66/142/5 62/126/5
f 65/136/4 68/144/4 64/130/4
f 66/138/18 65/146/18 61/124/18
f 76/139/2 75/148/2 71/140/2
f 71/141/17 70/150/17 66/142/17
f 69/143/4 72/152/4 68/144/4
f 70/145/18 69/154/18 65/146/18
f 80/147/2 79/156/2 75/148/2
f 75/149/5 74/158/5 70/150/5
f 73/151/4 76/160/4 72/152/4
f 74/153/18 73/162/18 69/154/18
f 84/155/2 83/164/2 79/156/2
f 79/157/17 78/166/17 74/158/17
f 77/159/4 80/168/4 76/160/4
f 78/161/18 77/170/18 73/162/18
f 88/163/2 87/172/2 83/164/2
f 83/165/5 82/174/5 78/166/5
f 81/167/4 84/176/4 80/168/4
f 82/169/18 81/178/18 77/170/18
f 92/171/2 91/235/2 87/172/2
f 87/173/5 86/182/5 82/174/5
f 85/175/4 88/184/4 84/176/4
f 86/177/18 85/186/18 81/178/18
f 91/235/2 92/171/2 95/180/2
f 91/181/17 90/190/17 86/182/17
f 89/183/4 92/192/4 88/184/4
f 90/185/18 89/194/18 85/186/18
f 95/180/2 96/179/2 99/188/2
f 95/189/5 94/197/5 90/190/5
f 93/191/30 96/199/30 92/192/30
f 94/193/3 93/201/3 89/194/3
f 104/195/2 103/203/2 99/188/2
f 99/196/17 98/205/17 94/197/17
f 97/198/31 100/236/31 96/199/31
f 98/200/3 97/237/3 93/201/3
f 108/202/2 107/238/2 103/203/2
f 103/204/17 102/213/17 98/205/17
f 101/207/32 104/215/32 100/208/32
f 97/237/3 98/200/3 101/210/3
f 107/238/2 108/202/2 111/211/2
f 107/212/5 106/221/5 102/213/5
f 105/214/33 108/222/33 104/215/33
f 101/210/14 102/209/14 105/217/14
f 111/211/2 112/106/2 115/219/2
f 111/220/5 110/225/5 106/221/5
f 109/110/25 112/231/25 108/222/25
f 110/223/14 109/117/14 105/217/14
f 114/125/16 115/16/16 116/114/16
f 115/224/5 114/239/5 110/225/5
f 113/227/4 116/1/4 112/228/4
f 114/229/3 113/233/3 109/117/3
