# Blender v2.64 (sub 0) OBJ File: ''
# www.blender.org
o Mesh1_Model
v -7.601211 2.723885 18.194679
v -7.601211 1.526281 15.707878
v 10.021759 1.526281 15.707878
v 10.021759 2.723885 18.194679
v -7.601211 0.517883 12.965378
v 10.021759 0.517883 12.965378
v -7.601211 -0.284453 10.012978
v 10.021759 -0.284453 10.012978
v -7.601211 -0.867320 6.899973
v 10.021759 -0.867320 6.899973
v -7.601211 -1.220990 3.678374
v 10.021759 -1.220990 3.678374
v -7.601211 -1.339538 0.402073
v 10.021759 -1.339538 0.402073
v -7.601211 -1.220987 -2.874327
v 10.021759 -1.220987 -2.874327
v -7.601211 -0.867316 -6.095926
v 10.021759 -0.867316 -6.095926
v -7.601211 -0.284446 -9.208923
v 10.021759 -0.284446 -9.208923
v -7.601211 0.517891 -12.161324
v 10.021759 0.517891 -12.161324
v -7.601211 1.526291 -14.903825
v 10.021759 1.526291 -14.903825
v -7.601211 2.723897 -17.390522
v 10.021759 2.723897 -17.390522
v -7.601211 4.053896 -17.390522
v 10.021759 4.053896 -17.390522
v -6.833839 4.053896 -16.056122
v -6.833839 4.053885 17.273678
v -7.601211 4.053885 18.194679
v 10.021759 4.053885 18.194679
v 9.254059 4.053896 -16.056122
v -6.833839 2.723895 -16.056122
v 9.254059 2.723895 -16.056122
v 0.199361 2.723891 -0.608425
v 0.119560 2.723891 -0.383925
v 0.092361 2.723891 -0.143025
v 0.119560 2.723891 0.097875
v 0.199361 2.723891 0.322376
v -6.833839 2.723885 17.273678
v 9.254059 2.723885 17.273678
v 9.254059 4.053885 17.273678
v 1.688861 2.723891 -0.143025
v 1.661660 2.723891 -0.383925
v 1.581961 2.723891 -0.608425
v 1.455061 2.723891 -0.801125
v 1.289761 2.723891 -0.949124
v 1.097261 2.723891 -1.042023
v 0.890660 2.723891 -1.073822
v 0.684060 2.723891 -1.042023
v 0.491461 2.723891 -0.949124
v 0.326160 2.723891 -0.801125
v 1.455061 22.063892 -0.801119
v 1.581961 22.063892 -0.608419
v 1.289761 22.063892 -0.949117
v 0.326160 22.063892 -0.801119
v 0.491461 22.063892 -0.949117
v 0.199361 22.063892 -0.608419
v 0.119560 22.063892 -0.383919
v 0.092361 22.063892 -0.143018
v 0.119560 22.063892 0.097882
v 0.199361 22.063892 0.322382
v 0.326160 2.723891 0.515175
v 0.326160 22.063892 0.515181
v 0.491461 2.723891 0.663074
v 0.684060 2.723891 0.756077
v 0.890660 2.723891 0.787777
v 1.097261 2.723891 0.756077
v 1.289761 2.723891 0.663074
v 1.455061 2.723891 0.515175
v 1.581961 2.723891 0.322376
v 1.661660 2.723891 0.097875
v 1.688861 22.063892 -0.143018
v 1.661660 22.063892 0.097882
v 1.661660 22.063892 -0.383919
v 0.491461 22.063892 0.663080
v 0.684060 22.063892 0.756083
v 0.890660 22.063892 0.787783
v 1.097261 22.063892 0.756083
v 1.289761 22.063892 0.663080
v 1.455061 22.063892 0.515181
v 1.581961 22.063892 0.322382
v 0.684060 22.063892 -1.042017
v 1.097261 22.063892 -1.042017
v 0.684060 8.903892 -1.042021
v 0.890660 22.063892 -1.073816
v 1.097261 8.903892 -1.042021
v -13.302016 22.063892 -1.042017
v -13.302016 8.903892 -1.042021
v -13.302016 22.063892 -1.179518
v -13.302016 8.903892 -1.179522
v 14.515259 22.063892 -1.179518
v 14.515259 8.903892 -1.179522
v 14.515259 22.063892 -1.042017
v 14.515259 8.903892 -1.042021
vt 0.524542 0.000000
vt 0.524655 0.036895
vt 0.263194 0.037697
vt 0.263081 0.000802
vt 0.524780 0.077584
vt 0.263319 0.078386
vt 0.524914 0.121387
vt 0.263453 0.122189
vt 0.525056 0.167572
vt 0.263595 0.168374
vt 0.525202 0.215369
vt 0.263741 0.216171
vt 0.525351 0.263978
vt 0.263891 0.264780
vt 0.525501 0.312587
vt 0.264040 0.313390
vt 0.525647 0.360384
vt 0.264186 0.361186
vt 0.525789 0.406570
vt 0.264328 0.407372
vt 0.525923 0.450373
vt 0.264462 0.451175
vt 0.526048 0.491062
vt 0.264587 0.491864
vt 0.526161 0.527955
vt 0.264700 0.528757
vt 0.504960 0.528757
vt 0.505752 0.790218
vt 0.486020 0.790278
vt 0.485227 0.528817
vt 0.251635 0.020565
vt 0.001620 0.000000
vt 0.250118 0.515058
vt 0.261461 0.528757
vt 0.000000 0.527955
vt 0.364319 0.790218
vt 0.365121 0.528757
vt 0.384853 0.528818
vt 0.384051 0.790279
vt 0.012949 0.019833
vt 0.402482 0.767443
vt 0.403215 0.528757
vt 0.422947 0.528818
vt 0.422215 0.767504
vt 0.527678 0.495226
vt 0.631322 0.265718
vt 0.766365 0.494493
vt 0.630128 0.262391
vt 0.629714 0.258818
vt 0.630106 0.255242
vt 0.631280 0.251908
vt 0.526161 0.000732
vt 0.764847 0.000000
vt 0.466886 0.528757
vt 0.467609 0.767443
vt 0.447877 0.767503
vt 0.447154 0.528817
vt 0.818938 0.494554
vt 0.817422 0.000061
vt 0.837154 0.000000
vt 0.838671 0.494493
vt 0.011432 0.514326
vt 0.815905 0.000000
vt 0.817422 0.494493
vt 0.797689 0.494554
vt 0.796172 0.000061
vt 0.653400 0.258745
vt 0.653007 0.262320
vt 0.651835 0.265655
vt 0.649961 0.268520
vt 0.647516 0.270723
vt 0.644664 0.272110
vt 0.641600 0.272591
vt 0.638533 0.272129
vt 0.635672 0.270759
vt 0.633212 0.268571
vt 0.522422 0.528766
vt 0.525281 0.528757
vt 0.526161 0.815693
vt 0.523302 0.815702
vt 0.485227 0.815693
vt 0.482775 0.815700
vt 0.481905 0.528765
vt 0.484358 0.528757
vt 0.470931 0.815736
vt 0.468479 0.815744
vt 0.467609 0.528808
vt 0.470061 0.528801
vt 0.364319 0.815693
vt 0.361460 0.815702
vt 0.360580 0.528766
vt 0.363439 0.528757
vt 0.358129 0.815712
vt 0.357249 0.528776
vt 0.354555 0.815723
vt 0.353675 0.528787
vt 0.350981 0.815734
vt 0.350101 0.528798
vt 0.347650 0.815744
vt 0.346770 0.528808
vt 0.344790 0.815753
vt 0.343910 0.528817
vt 0.633153 0.249042
vt 0.635598 0.246840
vt 0.638452 0.245451
vt 0.641515 0.244972
vt 0.644582 0.245433
vt 0.647442 0.246804
vt 0.649901 0.248990
vt 0.651793 0.251845
vt 0.652986 0.255172
vt 0.511943 0.528798
vt 0.515517 0.528787
vt 0.516397 0.815723
vt 0.512823 0.815734
vt 0.519091 0.528776
vt 0.519972 0.815712
vt 0.384853 0.528809
vt 0.387306 0.528801
vt 0.388186 0.815737
vt 0.385734 0.815744
vt 0.390163 0.528792
vt 0.391043 0.815728
vt 0.393228 0.528783
vt 0.394109 0.815718
vt 0.396294 0.528774
vt 0.397174 0.815709
vt 0.399150 0.528765
vt 0.400030 0.815700
vt 0.401602 0.528757
vt 0.402482 0.815693
vt 0.505752 0.528817
vt 0.508612 0.528808
vt 0.509493 0.815744
vt 0.506632 0.815753
vt 0.766825 0.205123
vt 0.766365 0.202056
vt 0.766844 0.198993
vt 0.768196 0.207985
vt 0.768233 0.196141
vt 0.770383 0.210444
vt 0.770435 0.193695
vt 0.773238 0.212334
vt 0.773301 0.191821
vt 0.776565 0.213528
vt 0.776635 0.190649
vt 0.780138 0.213943
vt 0.780211 0.190256
vt 0.783713 0.213550
vt 0.783783 0.190671
vt 0.787048 0.212376
vt 0.787111 0.191864
vt 0.789912 0.210504
vt 0.789964 0.193755
vt 0.792116 0.208058
vt 0.792152 0.196214
vt 0.793503 0.205205
vt 0.793521 0.199074
vt 0.472919 0.528792
vt 0.473510 0.724039
vt 0.473788 0.815728
vt 0.475984 0.528783
vt 0.476853 0.815718
vt 0.479049 0.528773
vt 0.479641 0.724020
vt 0.479919 0.815709
vt 0.998380 1.023242
vt 0.978648 1.023181
vt 0.960993 0.986231
vt 1.000000 0.495286
vt 0.946157 0.945497
vt 0.934387 0.901657
vt 0.925882 0.855445
vt 0.920781 0.807632
vt 0.919171 0.759018
vt 0.921079 0.710414
vt 0.926473 0.662633
vt 0.935262 0.616474
vt 0.947301 0.572708
vt 0.962386 0.532065
vt 0.980268 0.495226
vt 0.302088 1.019763
vt 0.284433 1.056713
vt 0.264700 1.056773
vt 0.263081 0.528818
vt 0.316924 0.979028
vt 0.328693 0.935189
vt 0.337199 0.888977
vt 0.342300 0.841164
vt 0.343910 0.792550
vt 0.342002 0.743945
vt 0.336608 0.696165
vt 0.327818 0.650006
vt 0.315780 0.606239
vt 0.300694 0.565596
vt 0.282813 0.528757
vt 0.793984 0.202141
vt 0.722045 0.701029
vt 0.721408 0.908532
vt 0.526161 0.907933
vt 0.526798 0.700430
vt 0.445114 0.724010
vt 0.444515 0.528764
vt 0.446555 0.528757
vt 0.447154 0.724004
vt 0.723925 0.908525
vt 0.722674 0.495817
vt 0.917921 0.495226
vt 0.919171 0.907933
vt 0.423546 0.724010
vt 0.422947 0.528764
vt 0.424987 0.528757
vt 0.425586 0.724004
vt 0.722674 0.495825
vt 0.722063 0.694899
vt 0.526817 0.694300
vt 0.527427 0.495226
vt 0.839307 0.207509
vt 0.838671 0.000006
vt 0.840711 0.000000
vt 0.839326 0.213639
vt 0.839937 0.412714
vt 0.841977 0.412707
vt 0.794906 0.412714
vt 0.792866 0.412708
vt 0.794132 0.000000
vt 0.796172 0.000006
vn 0.000000 -0.900966 0.433891
vn 0.000000 -0.938565 0.345104
vn 0.000000 -0.965001 0.262246
vn 0.000000 -0.982919 0.184038
vn 0.000000 -0.994028 0.109125
vn 0.000000 -0.999346 0.036160
vn -0.000000 -0.999346 -0.036160
vn -0.000000 -0.994028 -0.109125
vn -0.000000 -0.982919 -0.184039
vn -0.000000 -0.965001 -0.262246
vn -0.000000 -0.938564 -0.345104
vn -0.000000 -0.900958 -0.433906
vn 0.000000 0.000000 -1.000000
vn 0.000000 1.000000 0.000000
vn 0.000000 0.000000 1.000000
vn 0.000001 1.000000 0.000000
vn 0.000004 1.000000 -0.000001
vn 1.000000 0.000000 0.000000
vn -1.000000 -0.000000 -0.000000
vn 0.000001 1.000000 0.000001
vn -0.000013 1.000000 -0.000007
vn 0.835171 0.000000 -0.549991
vn 0.667043 0.000000 -0.745020
vn 0.667040 0.000000 -0.745022
vn -0.667040 0.000000 -0.745022
vn -0.667038 0.000000 -0.745024
vn -0.835372 0.000000 -0.549685
vn -0.942243 0.000000 -0.334931
vn -0.993686 0.000000 -0.112193
vn -0.993686 0.000000 -0.112192
vn -0.993686 -0.000000 0.112193
vn -0.942243 -0.000000 0.334929
vn -0.942243 -0.000000 0.334931
vn -0.835502 -0.000000 0.549488
vn -0.000003 1.000000 0.000002
vn -0.000001 1.000000 0.000001
vn 0.993685 -0.000000 0.112201
vn 0.993685 0.000000 -0.112201
vn 0.993686 0.000000 -0.112201
vn 0.942378 0.000000 -0.334550
vn -0.666790 -0.000000 0.745246
vn -0.434841 -0.000000 0.900507
vn -0.151662 -0.000000 0.988432
vn 0.151661 -0.000000 0.988433
vn 0.435022 -0.000000 0.900420
vn 0.666792 -0.000000 0.745244
vn 0.835301 -0.000000 0.549794
vn 0.942378 -0.000000 0.334549
vn 0.942378 -0.000000 0.334550
vn -0.434450 0.000000 -0.900696
vn -0.434446 0.000000 -0.900698
vn -0.152124 0.000000 -0.988361
vn -0.152125 0.000000 -0.988361
vn 0.152123 0.000000 -0.988361
vn 0.152124 0.000000 -0.988361
vn 0.434631 0.000000 -0.900609
vn 0.434628 0.000000 -0.900610
vn 0.434627 0.000000 -0.900611
vn 0.000000 -1.000000 0.000000
vn 0.000000 1.000000 0.000003
vn 0.000000 1.000000 0.000001
s off
f 1/1/1 2/2/1 3/3/1
f 1/1/1 3/3/1 4/4/1
f 2/2/2 5/5/2 6/6/2
f 2/2/2 6/6/2 3/3/2
f 5/5/3 7/7/3 8/8/3
f 5/5/3 8/8/3 6/6/3
f 7/7/4 9/9/4 10/10/4
f 7/7/4 10/10/4 8/8/4
f 9/9/5 11/11/5 12/12/5
f 9/9/5 12/12/5 10/10/5
f 11/11/6 13/13/6 14/14/6
f 11/11/6 14/14/6 12/12/6
f 13/13/7 15/15/7 16/16/7
f 13/13/7 16/16/7 14/14/7
f 15/15/8 17/17/8 18/18/8
f 15/15/8 18/18/8 16/16/8
f 17/17/9 19/19/9 20/20/9
f 17/17/9 20/20/9 18/18/9
f 19/19/10 21/21/10 22/22/10
f 19/19/10 22/22/10 20/20/10
f 21/21/11 23/23/11 24/24/11
f 21/21/11 24/24/11 22/22/11
f 23/23/12 25/25/12 26/26/12
f 23/23/12 26/26/12 24/24/12
f 26/27/13 25/28/13 27/29/13
f 26/27/13 27/29/13 28/30/13
f 27/4/14 29/31/14 28/32/14
f 29/31/14 27/4/14 30/33/14
f 31/34/14 30/33/14 27/4/14
f 30/33/14 31/34/14 32/35/14
f 1/36/15 4/37/15 32/38/15
f 1/36/15 32/38/15 31/39/15
f 28/32/14 33/40/14 32/35/14
f 28/32/14 29/31/14 33/40/14
f 34/41/15 35/42/15 33/43/15
f 34/41/15 33/43/15 29/44/15
f 34/45/14 36/46/14 35/47/14
f 36/46/14 34/45/14 37/48/14
f 37/48/16 34/45/16 38/49/16
f 34/45/16 39/50/16 38/49/16
f 34/45/17 40/51/17 39/50/17
f 41/52/14 40/51/14 34/45/14
f 40/51/14 41/52/14 42/53/14
f 42/54/13 41/55/13 30/56/13
f 42/54/13 30/56/13 43/57/13
f 41/58/18 34/59/18 29/60/18
f 41/58/18 29/60/18 30/61/18
f 30/33/14 32/35/14 43/62/14
f 43/62/14 32/35/14 33/40/14
f 35/63/19 42/64/19 43/65/19
f 35/63/19 43/65/19 33/66/19
f 35/47/14 44/67/14 42/53/14
f 35/47/14 45/68/14 44/67/14
f 35/47/14 46/69/14 45/68/14
f 35/47/20 47/70/20 46/69/20
f 35/47/14 48/71/14 47/70/14
f 35/47/14 49/72/14 48/71/14
f 35/47/14 50/73/14 49/72/14
f 35/47/14 51/74/14 50/73/14
f 35/47/14 52/75/14 51/74/14
f 35/47/20 53/76/20 52/75/20
f 35/47/21 36/46/21 53/76/21
f 46/77/22 47/78/22 54/79/22
f 46/77/22 54/79/22 55/80/22
f 47/81/23 48/82/23 56/83/23
f 47/81/24 56/83/24 54/84/24
f 52/85/25 53/86/25 57/87/25
f 52/85/26 57/87/26 58/88/26
f 53/89/27 36/90/27 59/91/27
f 53/89/27 59/91/27 57/92/27
f 36/90/28 37/93/28 60/94/28
f 36/90/28 60/94/28 59/91/28
f 37/93/29 38/95/29 61/96/29
f 37/93/30 61/96/30 60/94/30
f 38/95/31 39/97/31 62/98/31
f 38/95/31 62/98/31 61/96/31
f 39/97/32 40/99/32 63/100/32
f 39/97/33 63/100/33 62/98/33
f 40/99/34 64/101/34 65/102/34
f 40/99/34 65/102/34 63/100/34
f 40/51/35 42/53/35 64/103/35
f 64/103/36 42/53/36 66/104/36
f 66/104/16 42/53/16 67/105/16
f 67/105/14 42/53/14 68/106/14
f 68/106/14 42/53/14 69/107/14
f 69/107/36 42/53/36 70/108/36
f 70/108/14 42/53/14 71/109/14
f 71/109/14 42/53/14 72/110/14
f 72/110/14 42/53/14 73/111/14
f 73/111/16 42/53/16 44/67/16
f 73/112/37 44/113/37 74/114/37
f 73/112/37 74/114/37 75/115/37
f 44/113/38 45/116/38 76/117/38
f 44/113/39 76/117/39 74/114/39
f 45/116/40 46/77/40 55/80/40
f 45/116/40 55/80/40 76/117/40
f 64/118/41 66/119/41 77/120/41
f 64/118/41 77/120/41 65/121/41
f 66/119/42 67/122/42 78/123/42
f 66/119/42 78/123/42 77/120/42
f 67/122/43 68/124/43 79/125/43
f 67/122/43 79/125/43 78/123/43
f 68/124/44 69/126/44 80/127/44
f 68/124/44 80/127/44 79/125/44
f 69/126/45 70/128/45 81/129/45
f 69/126/45 81/129/45 80/127/45
f 70/128/46 71/130/46 82/131/46
f 70/128/46 82/131/46 81/129/46
f 71/132/47 72/133/47 83/134/47
f 71/132/47 83/134/47 82/135/47
f 72/133/48 73/112/48 75/115/48
f 72/133/49 75/115/49 83/134/49
f 78/136/14 79/137/14 80/138/14
f 77/139/14 78/136/14 80/138/14
f 77/139/14 80/138/14 81/140/14
f 65/141/14 77/139/14 81/140/14
f 65/141/14 81/140/14 82/142/14
f 63/143/14 65/141/14 82/142/14
f 63/143/14 82/142/14 83/144/14
f 62/145/14 63/143/14 83/144/14
f 62/145/14 83/144/14 75/146/14
f 61/147/14 62/145/14 75/146/14
f 61/147/14 75/146/14 74/148/14
f 60/149/14 61/147/14 74/148/14
f 60/149/14 74/148/14 76/150/14
f 59/151/14 60/149/14 76/150/14
f 59/151/14 76/150/14 55/152/14
f 57/153/14 59/151/14 55/152/14
f 57/153/14 55/152/14 54/154/14
f 58/155/14 57/153/14 54/154/14
f 58/155/14 54/154/14 56/156/14
f 84/157/14 58/155/14 56/156/14
f 84/157/14 56/156/14 85/158/14
f 52/85/50 58/88/50 84/159/50
f 52/85/51 84/159/51 86/160/51
f 52/85/51 86/160/51 51/161/51
f 86/160/52 84/159/52 87/162/52
f 86/160/52 87/162/52 50/163/52
f 51/161/53 86/160/53 50/163/53
f 50/163/54 87/162/54 85/164/54
f 50/163/55 85/164/55 88/165/55
f 50/163/55 88/165/55 49/166/55
f 88/165/56 85/164/56 56/83/56
f 88/165/57 56/83/57 48/82/57
f 49/166/58 88/165/58 48/82/58
f 32/167/18 4/168/18 3/169/18
f 28/170/18 32/167/18 3/169/18
f 28/170/18 3/169/18 6/171/18
f 28/170/18 6/171/18 8/172/18
f 28/170/18 8/172/18 10/173/18
f 28/170/18 10/173/18 12/174/18
f 28/170/18 12/174/18 14/175/18
f 28/170/18 14/175/18 16/176/18
f 28/170/18 16/176/18 18/177/18
f 28/170/18 18/177/18 20/178/18
f 28/170/18 20/178/18 22/179/18
f 28/170/18 22/179/18 24/180/18
f 28/170/18 24/180/18 26/181/18
f 2/182/19 1/183/19 31/184/19
f 2/182/19 31/184/19 27/185/19
f 5/186/19 2/182/19 27/185/19
f 7/187/19 5/186/19 27/185/19
f 9/188/19 7/187/19 27/185/19
f 11/189/19 9/188/19 27/185/19
f 13/190/19 11/189/19 27/185/19
f 15/191/19 13/190/19 27/185/19
f 17/192/19 15/191/19 27/185/19
f 19/193/19 17/192/19 27/185/19
f 21/194/19 19/193/19 27/185/19
f 23/195/19 21/194/19 27/185/19
f 25/196/19 23/195/19 27/185/19
f 87/197/14 84/157/14 85/158/14
f 84/198/15 89/199/15 90/200/15
f 84/198/15 90/200/15 86/201/15
f 90/202/19 89/203/19 91/204/19
f 90/202/19 91/204/19 92/205/19
f 91/206/13 93/207/13 94/208/13
f 91/206/13 94/208/13 92/209/13
f 95/210/18 96/211/18 94/212/18
f 95/210/18 94/212/18 93/213/18
f 95/214/15 85/215/15 88/216/15
f 95/214/15 88/216/15 96/217/15
f 86/201/15 88/216/15 85/215/15
f 86/201/15 85/215/15 84/198/15
f 86/218/59 90/219/59 92/220/59
f 88/221/59 86/218/59 92/220/59
f 96/222/59 88/221/59 92/220/59
f 94/223/59 96/222/59 92/220/59
f 91/224/14 89/225/14 84/157/14
f 91/224/14 84/157/14 87/197/14
f 87/197/14 85/158/14 95/226/14
f 87/197/14 95/226/14 93/227/14
f 91/224/14 87/197/14 93/227/14
f 67/105/14 68/106/14 69/107/14
f 66/104/60 67/105/60 69/107/60
f 66/104/60 69/107/60 70/108/60
f 64/103/14 66/104/14 70/108/14
f 64/103/14 70/108/14 71/109/14
f 40/51/14 64/103/14 71/109/14
f 40/51/14 71/109/14 72/110/14
f 39/50/14 40/51/14 72/110/14
f 39/50/14 72/110/14 73/111/14
f 38/49/14 39/50/14 73/111/14
f 38/49/14 73/111/14 44/67/14
f 37/48/14 38/49/14 44/67/14
f 37/48/14 44/67/14 45/68/14
f 36/46/14 37/48/14 45/68/14
f 36/46/14 45/68/14 46/69/14
f 53/76/61 36/46/61 46/69/61
f 53/76/61 46/69/61 47/70/61
f 52/75/14 53/76/14 47/70/14
f 52/75/14 47/70/14 48/71/14
f 51/74/14 52/75/14 48/71/14
f 51/74/14 48/71/14 49/72/14
f 50/73/14 51/74/14 49/72/14
