# Blender v2.64 (sub 0) OBJ File: ''
# www.blender.org
o Mesh1_Model.001
v 19.619387 -0.103829 -26.233812
v -17.995424 -0.103835 13.116907
v -17.995424 -0.103829 -26.233812
v -5.109248 -0.103835 13.116907
v 1.861313 -0.103835 13.116907
v 19.619387 -0.103835 13.116907
v 19.619387 27.278639 13.116912
v 19.619387 27.278645 -26.233809
v -17.995424 27.278645 -26.233809
v -17.995424 27.278639 13.116912
v -5.109248 11.174771 13.116909
v 1.861313 11.174771 13.116909
vt 0.733687 0.258136
vt 0.843013 0.190104
vt 0.843221 0.257800
vt 0.733479 0.190440
vt 0.001172 0.383282
vt 0.365303 0.000000
vt 0.366475 0.382161
vt 0.240156 0.000384
vt 0.172461 0.000592
vt 0.000000 0.001121
vt 0.000000 0.384098
vt 0.267102 0.765443
vt 0.001172 0.766259
vt 0.265930 0.383282
vt 0.899506 0.383282
vt 0.634698 0.749400
vt 0.633577 0.384098
vt 0.900627 0.748584
vt 0.632405 0.766259
vt 0.367647 0.383282
vt 0.366475 0.765443
vt 0.734071 0.383282
vt 1.000000 0.382466
vt 0.998879 0.017164
vt 0.732950 0.017979
vt 0.732950 0.001121
vt 0.731777 0.383282
vt 0.367647 0.000000
vn 0.000000 -0.000000 1.000000
vn 0.000000 -1.000000 -0.000000
vn 1.000000 -0.000000 0.000000
vn 0.000000 0.000000 -1.000000
vn -1.000000 0.000000 0.000000
vn 0.000000 1.000000 0.000000
s off
f 4/1/1 12/2/1 11/3/1
f 12/2/1 4/1/1 5/4/1
f 1/5/2 2/6/2 3/7/2
f 2/6/2 1/5/2 4/8/2
f 4/8/2 1/5/2 5/9/2
f 5/9/2 1/5/2 6/10/2
f 1/11/3 7/12/3 6/13/3
f 7/12/3 1/11/3 8/14/3
f 1/15/4 9/16/4 8/17/4
f 9/16/4 1/15/4 3/18/4
f 2/19/5 9/20/5 3/17/5
f 9/20/5 2/19/5 10/21/5
f 2/22/1 11/3/1 10/23/1
f 11/3/1 2/22/1 4/1/1
f 5/4/1 7/24/1 12/2/1
f 7/24/1 5/4/1 6/25/1
f 12/2/1 7/24/1 11/3/1
f 10/23/1 11/3/1 7/24/1
f 7/7/6 9/26/6 10/27/6
f 9/26/6 7/7/6 8/28/6
