# Blender v2.69 (sub 0) OBJ File: ''
# www.blender.org
o Cube_Cube.000
v -0.797533 -0.465249 -0.488131
v -0.396454 -0.465249 -0.488131
v -0.797533 -0.684147 -0.377543
v -0.396454 -0.465249 0.488131
v -0.473286 -0.684147 -0.377543
v -0.797533 -0.465249 0.488131
v -0.797533 -0.684147 0.377543
v -0.473286 -0.684147 0.377543
v -0.797533 -0.455739 0.271638
v -0.485396 -0.455739 0.271638
v -0.453905 -0.382954 0.292690
v -0.797533 -0.455739 -0.271638
v -0.485396 -0.455739 -0.271638
v -0.453905 -0.382954 -0.292690
v -0.797533 -0.382954 0.292690
v -0.428346 -0.315047 0.320678
v -0.797533 -0.382954 -0.292690
v -0.428346 -0.315047 -0.320678
v -0.797533 -0.315047 0.320678
v -0.389317 -0.222889 0.377508
v -0.797533 -0.315047 -0.320678
v -0.389317 -0.222889 -0.377508
v -0.797533 -0.222889 0.377508
v -0.340256 -0.121029 0.452849
v -0.797533 -0.222889 -0.377508
v -0.340256 -0.121029 -0.452849
v -0.797533 -0.121029 0.452849
v -0.271401 -0.014319 0.527358
v -0.797533 -0.121029 -0.452849
v -0.271401 -0.014319 -0.527358
v -0.797533 -0.014319 0.527358
v -0.206891 0.082690 0.609502
v -0.797533 -0.014319 -0.527358
v -0.206891 0.082690 -0.609502
v -0.797533 0.082690 0.609502
v -0.127714 0.179699 0.709753
v -0.797533 0.082690 -0.609502
v -0.127714 0.179699 -0.709753
v -0.797533 0.179699 0.709753
v -0.024354 0.276708 0.826169
v -0.797533 0.179699 -0.709753
v -0.024354 0.276708 -0.826169
v -0.797533 0.276708 0.826169
v 0.115796 0.383418 0.961589
v -0.797533 0.276708 -0.826169
v 0.115796 0.383418 -0.961589
v -0.797533 0.383418 0.961589
v 0.275980 0.485278 1.108428
v -0.797533 0.383418 -0.961589
v 0.275980 0.485278 -1.108428
v -0.797533 0.485278 1.108428
v 0.473495 0.582287 1.235959
v -0.797533 0.485278 -1.108428
v 0.473495 0.582287 -1.235959
v -0.797533 0.582287 1.235959
v 0.797533 0.684147 1.382963
v -0.797533 0.582287 -1.235959
v 0.797533 0.684147 -1.382963
v -0.797533 0.684147 1.382963
v -0.797533 0.684147 -1.382963
vt 0.169603 0.271398
vt 0.169603 0.339666
vt 0.128021 0.271398
vt 0.076693 0.271398
vt 0.076693 0.437567
vt 0.052162 0.290221
vt 0.076693 0.339666
vt 0.118276 0.271398
vt 0.000000 0.418744
vt 0.000000 0.290221
vt 0.052162 0.418744
vt 0.237846 0.437567
vt 0.169603 0.437567
vt 0.237889 0.400718
vt 0.735393 0.742280
vt 0.735393 0.689151
vt 0.747808 0.683791
vt 0.184780 0.400718
vt 0.237846 0.271398
vt 0.237889 0.308247
vt 0.470785 0.281628
vt 0.470785 0.189157
vt 0.479898 0.285211
vt 0.470785 0.523914
vt 0.470785 0.470785
vt 0.483200 0.529274
vt 0.747808 0.742280
vt 0.760140 0.679441
vt 0.479898 0.185574
vt 0.487786 0.289975
vt 0.483200 0.470785
vt 0.495533 0.533624
vt 0.760140 0.742280
vt 0.778569 0.672798
vt 0.487786 0.180810
vt 0.499189 0.299648
vt 0.495533 0.470785
vt 0.513962 0.540267
vt 0.778569 0.742280
vt 0.800063 0.664447
vt 0.499189 0.171137
vt 0.512745 0.312472
vt 0.513962 0.470785
vt 0.535455 0.548618
vt 0.800063 0.742280
vt 0.822183 0.652727
vt 0.512745 0.158314
vt 0.529756 0.325154
vt 0.535455 0.470785
vt 0.557575 0.560338
vt 0.822183 0.742280
vt 0.843586 0.641747
vt 0.529756 0.145632
vt 0.545528 0.339135
vt 0.557575 0.470785
vt 0.578978 0.571318
vt 0.843586 0.742280
vt 0.866614 0.628271
vt 0.545528 0.131650
vt 0.563659 0.356199
vt 0.578978 0.470785
vt 0.602007 0.584794
vt 0.866614 0.742280
vt 0.891094 0.610678
vt 0.563659 0.114586
vt 0.585681 0.376014
vt 0.602007 0.470785
vt 0.626486 0.602387
vt 0.891094 0.742280
vt 0.918683 0.586823
vt 0.585681 0.094771
vt 0.614160 0.399064
vt 0.626486 0.470785
vt 0.654075 0.626242
vt 0.918683 0.742280
vt 0.946595 0.559558
vt 0.614160 0.071722
vt 0.645593 0.424057
vt 0.654075 0.470785
vt 0.681988 0.653507
vt 0.946595 0.742280
vt 0.972073 0.525939
vt 0.645593 0.046728
vt 0.682761 0.445764
vt 0.681988 0.470785
vt 0.707465 0.687126
vt 0.972073 0.742280
vt 1.000000 0.470785
vt 0.682761 0.025021
vt 0.740553 0.470785
vt 0.707465 0.470785
vt 0.000000 0.271398
vt 0.000000 0.000000
vt 0.470785 0.271398
vt 0.470785 0.571052
vt 0.433527 0.589875
vt 0.433527 0.423707
vt 0.431908 0.460556
vt 0.431908 0.553026
vt 0.419519 0.456972
vt 0.419519 0.556609
vt 0.407961 0.452209
vt 0.407961 0.561373
vt 0.392275 0.442536
vt 0.392275 0.571046
vt 0.374937 0.429712
vt 0.374938 0.583870
vt 0.356774 0.417030
vt 0.356774 0.596552
vt 0.340263 0.403048
vt 0.340263 0.610534
vt 0.323751 0.385985
vt 0.323751 0.627597
vt 0.307239 0.366170
vt 0.307239 0.647412
vt 0.289076 0.343120
vt 0.289076 0.670462
vt 0.271739 0.318127
vt 0.271739 0.695455
vt 0.255227 0.296420
vt 0.255227 0.717162
vt 0.237889 0.271398
vt 0.128021 0.326588
vt 0.118276 0.326588
vt 0.184780 0.308247
vt 1.000000 0.742280
vt 0.740553 0.000000
vt 0.735393 0.470785
vt 0.470785 0.000000
vt 0.470785 0.442530
vt 0.237889 0.742184
vn 0.000000 -0.450925 -0.892562
vn 0.943565 -0.331186 -0.000000
vn 0.000000 -0.450925 0.892562
vn 0.000000 -1.000000 -0.000000
vn 0.000000 0.999037 0.043886
vn 0.000000 -0.277847 0.960625
vn 0.106318 0.994332 0.000000
vn 0.000000 0.999037 -0.043885
vn 0.917782 -0.397085 -0.000000
vn 0.000000 -0.277847 -0.960625
vn 0.000000 -0.381056 0.924552
vn 0.935904 -0.352256 -0.000000
vn 0.000000 -0.381056 -0.924552
vn 0.000000 -0.524884 0.851174
vn 0.920827 -0.389972 -0.000000
vn 0.000000 -0.524883 -0.851174
vn 0.000000 -0.594663 0.803976
vn 0.900942 -0.433940 -0.000000
vn 0.000000 -0.594662 -0.803975
vn 0.000000 -0.572493 0.819910
vn 0.840261 -0.542182 -0.000000
vn 0.000000 -0.572492 -0.819910
vn 0.000000 -0.646215 0.763155
vn 0.832694 -0.553733 -0.000000
vn 0.000000 -0.646215 -0.763155
vn 0.000000 -0.718631 0.695391
vn 0.774716 -0.632309 -0.000000
vn 0.000000 -0.718631 -0.695392
vn 0.000000 -0.768236 0.640167
vn 0.684350 -0.729153 -0.000000
vn 0.000000 -0.768235 -0.640168
vn 0.000000 -0.785448 0.618928
vn 0.605788 -0.795626 -0.000000
vn 0.000000 -0.785448 -0.618928
vn 0.000000 -0.821662 0.569974
vn 0.536593 -0.843841 -0.000000
vn 0.000000 -0.821662 -0.569975
vn 0.000000 -0.795905 0.605421
vn 0.440846 -0.897583 -0.000000
vn 0.000000 -0.795905 -0.605421
vn 0.000000 -0.821962 0.569542
vn 0.299879 -0.953977 -0.000000
vn 0.000000 -0.821961 -0.569543
vn 0.000000 1.000000 0.000000
vn -1.000000 0.000000 0.000000
vn -1.000000 -0.000001 0.000000
vn -1.000000 0.000001 0.000000
vn 0.943565 -0.331187 -0.000000
vn 0.000000 0.999036 0.043885
vn 0.106317 0.994332 0.000000
vn 0.935903 -0.352258 -0.000000
vn 0.000000 -0.381055 -0.924552
vn 0.920827 -0.389971 -0.000000
vn 0.000000 -0.524884 -0.851174
vn 0.000000 -0.594662 0.803976
vn 0.000000 -0.594662 -0.803976
vn 0.000000 -0.646215 -0.763156
vn 0.000000 -0.785448 -0.618927
vn 0.000000 -0.821662 0.569975
vn 0.000000 -0.795906 0.605421
vn 0.000000 -0.821962 0.569543
vn 0.000000 -0.821962 -0.569543
vn -1.000000 0.000012 0.000000
s off
f 1/1/1 2/2/1 3/3/1
f 2/4/2 4/5/2 5/6/2
f 4/7/3 6/4/3 7/8/3
f 7/9/4 3/10/4 8/11/4
f 6/12/5 4/13/5 9/14/5
f 9/15/6 10/16/6 11/17/6
f 4/13/7 2/1/7 10/18/7
f 2/1/8 1/19/8 12/20/8
f 10/21/9 13/22/9 11/23/9
f 13/24/10 12/25/10 14/26/10
f 15/27/11 11/17/11 16/28/11
f 11/23/12 14/29/12 16/30/12
f 14/26/13 17/31/13 18/32/13
f 19/33/14 16/28/14 20/34/14
f 16/30/15 18/35/15 20/36/15
f 18/32/16 21/37/16 22/38/16
f 23/39/17 20/34/17 24/40/17
f 20/36/18 22/41/18 24/42/18
f 22/38/19 25/43/19 26/44/19
f 27/45/20 24/40/20 28/46/20
f 24/42/21 26/47/21 28/48/21
f 26/44/22 29/49/22 30/50/22
f 31/51/23 28/46/23 32/52/23
f 28/48/24 30/53/24 32/54/24
f 30/50/25 33/55/25 34/56/25
f 35/57/26 32/52/26 36/58/26
f 32/54/27 34/59/27 36/60/27
f 34/56/28 37/61/28 38/62/28
f 39/63/29 36/58/29 40/64/29
f 36/60/30 38/65/30 40/66/30
f 38/62/31 41/67/31 42/68/31
f 43/69/32 40/64/32 44/70/32
f 40/66/33 42/71/33 44/72/33
f 42/68/34 45/73/34 46/74/34
f 47/75/35 44/70/35 48/76/35
f 44/72/36 46/77/36 48/78/36
f 46/74/37 49/79/37 50/80/37
f 51/81/38 48/76/38 52/82/38
f 48/78/39 50/83/39 52/84/39
f 50/80/40 53/85/40 54/86/40
f 55/87/41 52/82/41 56/88/41
f 52/84/42 54/89/42 56/90/42
f 54/86/43 57/91/43 58/15/43
f 59/92/44 56/93/44 60/94/44
f 7/95/45 6/96/45 1/97/45
f 1/97/45 6/96/45 12/98/45
f 12/98/45 9/99/45 17/100/45
f 17/100/45 15/101/45 21/102/45
f 21/102/45 19/103/45 25/104/45
f 25/104/45 23/105/45 29/106/45
f 29/106/46 27/107/46 33/108/46
f 33/108/45 31/109/45 37/110/45
f 37/110/45 35/111/45 41/112/45
f 41/112/45 39/113/45 45/114/45
f 45/114/47 43/115/47 49/116/47
f 49/116/47 47/117/47 53/118/47
f 53/118/45 51/119/45 57/120/45
f 57/120/45 55/121/45 60/122/45
f 2/2/1 5/123/1 3/3/1
f 4/5/48 8/11/48 5/6/48
f 8/124/3 4/7/3 7/8/3
f 3/10/4 5/6/4 8/11/4
f 4/13/49 10/18/49 9/14/49
f 15/27/6 9/15/6 11/17/6
f 2/1/50 13/125/50 10/18/50
f 13/125/8 2/1/8 12/20/8
f 13/22/9 14/29/9 11/23/9
f 12/25/10 17/31/10 14/26/10
f 19/33/11 15/27/11 16/28/11
f 14/29/51 18/35/51 16/30/51
f 17/31/52 21/37/52 18/32/52
f 23/39/14 19/33/14 20/34/14
f 18/35/53 22/41/53 20/36/53
f 21/37/54 25/43/54 22/38/54
f 27/45/55 23/39/55 24/40/55
f 22/41/18 26/47/18 24/42/18
f 25/43/56 29/49/56 26/44/56
f 31/51/20 27/45/20 28/46/20
f 26/47/21 30/53/21 28/48/21
f 29/49/22 33/55/22 30/50/22
f 35/57/23 31/51/23 32/52/23
f 30/53/24 34/59/24 32/54/24
f 33/55/57 37/61/57 34/56/57
f 39/63/26 35/57/26 36/58/26
f 34/59/27 38/65/27 36/60/27
f 37/61/28 41/67/28 38/62/28
f 43/69/29 39/63/29 40/64/29
f 38/65/30 42/71/30 40/66/30
f 41/67/31 45/73/31 42/68/31
f 47/75/32 43/69/32 44/70/32
f 42/71/33 46/77/33 44/72/33
f 45/73/58 49/79/58 46/74/58
f 51/81/59 47/75/59 48/76/59
f 46/77/36 50/83/36 48/78/36
f 49/79/37 53/85/37 50/80/37
f 55/87/60 51/81/60 52/82/60
f 50/83/39 54/89/39 52/84/39
f 53/85/40 57/91/40 54/86/40
f 59/126/61 55/87/61 56/88/61
f 54/89/42 58/127/42 56/90/42
f 57/91/62 60/128/62 58/15/62
f 56/93/44 58/129/44 60/94/44
f 3/130/45 7/95/45 1/97/45
f 12/98/63 6/96/63 9/99/63
f 17/100/45 9/99/45 15/101/45
f 21/102/45 15/101/45 19/103/45
f 25/104/45 19/103/45 23/105/45
f 29/106/45 23/105/45 27/107/45
f 33/108/45 27/107/45 31/109/45
f 37/110/46 31/109/46 35/111/46
f 41/112/45 35/111/45 39/113/45
f 45/114/45 39/113/45 43/115/45
f 49/116/46 43/115/46 47/117/46
f 53/118/45 47/117/45 51/119/45
f 57/120/46 51/119/46 55/121/46
f 60/122/45 55/121/45 59/131/45
