# Blender v2.69 (sub 0) OBJ File: ''
# www.blender.org
o Cube.001
v -0.284656 1.005861 -0.118279
v -0.155324 1.005861 -0.118279
v -0.284656 1.119026 -0.002288
v 0.113281 0.593990 -0.593813
v 0.251012 0.593990 -0.593813
v 0.113281 -1.437176 -0.593813
v 0.113533 0.883069 -0.189706
v 0.113529 0.773727 0.057416
v 0.113533 0.772373 -0.213824
v -0.155071 1.573992 -0.479949
v -0.155071 1.573992 -0.593813
v -0.283898 1.573992 -0.479949
v -0.284656 0.883069 -0.189706
v -0.155324 0.883069 -0.189706
v -0.155071 1.573992 0.593813
v -0.155071 1.573992 -0.199294
v -0.283898 1.573992 0.593813
v 0.113533 1.360108 0.561017
v 0.113533 1.369369 0.593813
v 0.113533 1.308881 0.593813
v 0.113281 1.573992 -0.593813
v 0.251012 1.573992 -0.593813
v 0.113281 0.779379 -0.593813
v -0.284656 1.360108 0.561017
v -0.155324 1.360108 0.561017
v -0.284656 1.397356 0.593813
v -0.284569 0.587787 -0.212155
v -0.155266 0.588050 -0.212147
v -0.155324 0.772373 -0.213824
v 0.251012 1.573992 -0.479949
v 0.251012 1.573992 -0.199294
v 0.251391 0.775876 -0.487214
v 0.251391 -1.433745 -0.479838
v 0.251770 -1.430314 -0.199072
v 0.252381 -1.568771 -0.478517
v -0.155071 0.779379 -0.593813
v -0.283898 1.573992 -0.593813
v -0.283898 0.779379 -0.593813
v 0.113281 1.573992 0.593813
v 0.113281 1.573992 -0.199294
v 0.251012 1.573992 0.593813
v 0.113281 1.573992 -0.479949
v -0.155071 0.593990 -0.593813
v -0.155071 -1.437176 -0.593813
v -0.283898 0.593990 -0.593813
v -0.283898 -1.437176 -0.593813
v 0.113562 0.588313 -0.212138
v 0.251770 0.588576 -0.212130
v 0.251769 0.589441 -0.117888
v 0.251770 1.360108 0.561017
v 0.113533 1.397356 0.593813
v 0.251770 0.772373 -0.213824
v 0.284278 0.775875 -0.487314
v 0.251770 1.397356 0.593813
v -0.283898 1.573992 -0.199294
v -0.284233 0.590889 -0.486379
v -0.283898 -1.437176 -0.479949
v -0.284277 0.775876 -0.487214
v 0.251770 0.883069 -0.189706
v 0.113533 1.005861 -0.118279
v 0.251770 1.005861 -0.118279
v 0.113533 1.119026 -0.002288
v 0.251770 1.119026 -0.002288
v 0.113533 1.218216 0.153809
v 0.251770 1.218216 0.153809
v 0.113533 1.299620 0.344014
v 0.251770 1.299620 0.344014
v -0.155328 0.773727 0.057416
v -0.155324 1.119026 -0.002288
v -0.284656 1.218216 0.153809
v -0.155324 0.892330 0.593813
v -0.155324 1.015122 0.593813
v -0.155324 1.218216 0.153809
v -0.284656 1.299620 0.344014
v 0.113533 1.406618 0.593813
v -0.155324 1.299620 0.344014
v -0.155324 1.128287 0.593813
v -0.284656 0.772373 -0.213824
v -0.155324 1.227478 0.593813
v 0.113533 1.227478 0.593813
v -0.155324 1.369369 0.593813
v -0.155324 1.406618 0.593813
v 0.113533 1.128287 0.593813
v 0.113533 1.015122 0.593813
v 0.113533 0.786522 0.593813
v -0.155324 1.308881 0.593813
v -0.155270 0.589404 0.059093
v 0.113558 0.589667 0.059102
v 0.251012 0.779379 -0.593813
v 0.251391 0.591283 -0.486367
v 0.113562 0.589179 -0.117897
v 0.251769 0.773238 -0.119582
v 0.284278 0.591282 -0.486467
v 0.113533 0.773238 -0.119582
v 0.251012 -1.437176 -0.593813
v 0.252003 -1.572201 -0.592493
v 0.284656 0.588575 -0.212230
v 0.284656 0.772372 -0.213924
v 0.284656 0.589441 -0.117988
v 0.284656 0.773238 -0.119682
v 0.114524 -1.569914 -0.478555
v 0.114776 -1.567627 -0.197826
v -0.153954 -1.571058 -0.478591
v 0.252760 -1.565340 -0.197752
v 0.114271 -1.572201 -0.592493
v -0.154080 -1.572201 -0.592493
v -0.282908 -1.572201 -0.592493
v -0.282908 -1.572201 -0.478629
v -0.283898 -1.437176 -0.199294
v -0.282908 -1.572201 -0.197974
v -0.280644 -1.573992 0.593813
v -0.154823 -1.433535 0.072020
v -0.154818 -1.434888 -0.199220
v -0.152559 -1.435326 0.593813
v -0.152555 -1.436680 0.593813
v 0.113533 0.892330 0.593813
v -0.155324 0.786522 0.593813
v -0.155324 1.397356 0.593813
v 0.116050 -1.434392 0.593813
v 0.116045 -1.433038 0.593813
v -0.151564 -1.571705 0.593813
v 0.254033 -1.432105 0.593813
v 0.255023 -1.567131 0.593813
v 0.117040 -1.569418 0.593813
v 0.117036 -1.568064 0.593813
v -0.151569 -1.570351 0.593813
v 0.113786 -1.432601 -0.199146
v 0.113782 -1.431247 0.072094
v -0.153828 -1.569914 -0.197900
v -0.281634 -1.438967 0.593813
vt 0.027033 0.806393
vt 0.000062 0.806348
vt 0.026986 0.779403
vt 0.137114 0.694337
vt 0.165837 0.694346
vt 0.136981 1.117915
vt 0.282152 0.172710
vt 0.333687 0.195511
vt 0.277123 0.195793
vt 0.748444 0.614250
vt 0.748444 0.590505
vt 0.775310 0.614250
vt 0.247720 0.666288
vt 0.220754 0.692755
vt 0.220749 0.666293
vt 0.748444 0.838172
vt 0.748444 0.672778
vt 0.775310 0.838172
vt 0.438708 0.073232
vt 0.445547 0.071301
vt 0.445547 0.083915
vt 0.137179 0.489968
vt 0.165901 0.489977
vt 0.137127 0.655676
vt 0.479774 0.875266
vt 0.479774 0.848295
vt 0.487941 0.875267
vt 0.220755 0.604545
vt 0.247720 0.604594
vt 0.247716 0.642941
vt 0.608295 -0.036526
vt 0.666823 -0.036526
vt 0.606780 0.129905
vt 0.608317 0.590673
vt 0.666868 0.589958
vt 0.608593 0.618832
vt 0.081217 0.489951
vt 0.081164 0.655659
vt 0.054351 0.489942
vt 0.054299 0.655650
vt 0.692482 0.838172
vt 0.692482 0.672778
vt 0.663760 0.838172
vt 0.663760 0.672778
vt 0.692482 0.614250
vt 0.692482 0.590505
vt 0.663760 0.614250
vt 0.663760 0.590505
vt 0.081152 0.694320
vt 0.081019 1.117898
vt 0.054287 0.694311
vt 0.054153 1.117889
vt 0.101357 0.675970
vt 0.072536 0.675976
vt 0.072536 0.656459
vt 0.175258 0.629214
vt 0.175258 0.600386
vt 0.183426 0.629215
vt 0.218915 0.656474
vt 0.218840 0.713486
vt 0.212057 0.656453
vt 0.832217 -0.036528
vt 0.832217 0.000307
vt 0.663770 0.628095
vt 0.498376 0.628096
vt 0.663770 0.591263
vt 0.438507 0.423091
vt 0.416103 0.423737
vt 0.439848 0.000181
vt 0.439848 0.628096
vt 0.416103 0.628096
vt 0.438333 0.461666
vt 0.979571 0.579514
vt 0.950743 0.579515
vt 0.979572 0.553053
vt 0.388640 0.806017
vt 0.359812 0.805970
vt 0.388593 0.779027
vt 0.359766 0.778980
vt 0.388578 0.744111
vt 0.359750 0.744064
vt 0.388593 0.702611
vt 0.359766 0.702564
vt 0.388640 0.656122
vt 0.979572 0.602861
vt 0.950744 0.602862
vt -0.134298 0.943645
vt -0.139328 0.920561
vt -0.082764 0.920843
vt 0.000016 0.779358
vt 0.026971 0.744487
vt 0.029097 0.945575
vt 0.029097 0.971181
vt 0.000000 0.744442
vt 0.026986 0.702987
vt 0.000000 0.000000
vt 0.000016 0.702942
vt 0.027033 0.656497
vt -0.119403 0.969250
vt 0.029097 0.994779
vt 0.220745 0.642947
vt -0.095214 0.992848
vt 0.029097 1.015463
vt 0.393454 0.085846
vt 0.445547 0.100889
vt 0.353789 0.102822
vt 0.321237 0.123506
vt 0.022257 1.043120
vt 0.029097 1.045052
vt 0.029097 1.052819
vt 0.445547 0.121574
vt 0.297048 0.147105
vt 0.445547 0.145172
vt 0.495914 0.649085
vt 0.551981 0.649057
vt 0.551985 0.760351
vt -0.022997 1.030507
vt 0.029097 1.032438
vt -0.062662 1.013532
vt -0.193620 0.799073
vt -0.137559 0.799120
vt -0.137559 0.837412
vt 0.551985 0.592915
vt 0.495918 0.592943
vt 0.277474 0.234175
vt 0.334039 0.233892
vt 0.165849 0.655685
vt 0.606956 0.168398
vt 0.416103 0.462396
vt -0.138978 0.882124
vt -0.082414 0.882407
vt -0.131171 0.597512
vt -0.159993 0.597462
vt -0.159999 0.559225
vt 0.389385 0.656509
vt 0.389385 0.618013
vt 0.396244 0.656509
vt 0.247667 0.713486
vt 0.247667 0.733139
vt 0.166937 0.166398
vt 0.166937 0.204782
vt 0.147283 0.166398
vt 0.775310 0.672778
vt 0.584550 -0.036525
vt 0.584549 0.591388
vt 0.584824 0.619546
vt 0.584549 0.167832
vt 0.584550 0.129174
vt 0.495346 0.460937
vt 0.495694 0.422445
vt 0.493379 0.225407
vt 0.531869 0.224954
vt 0.493224 0.282599
vt 0.531548 0.281971
vt 0.493546 0.302250
vt 0.218840 0.733140
vt 0.211982 0.713466
vt 0.065678 0.676001
vt -0.166857 0.559227
vt 0.072610 0.732631
vt 0.065752 0.732655
vt 0.635011 0.616703
vt 0.634921 0.674833
vt 0.579022 0.616558
vt 0.663760 0.616796
vt 0.663698 0.674964
vt 0.635015 0.593074
vt 0.579054 0.592967
vt 0.663737 0.593129
vt 0.552188 0.592915
vt 0.165703 1.117924
vt 0.165901 1.146083
vt 0.137178 1.146074
vt 0.416103 0.000181
vt 0.440123 -0.027978
vt 0.081217 1.146056
vt 0.498376 0.000181
vt 0.498651 -0.027978
vt 0.663770 -0.028357
vt -0.079718 0.460565
vt -0.136282 0.460283
vt 0.029097 0.460186
vt 0.439320 0.821454
vt 0.412401 0.821546
vt 0.439320 0.656074
vt -0.147342 0.902189
vt -0.091275 0.902189
vt -0.147342 0.927749
vt -0.147342 1.001488
vt -0.091275 1.001489
vt -0.147342 1.009242
vt -0.091275 0.927750
vt -0.147342 0.951305
vt -0.091275 0.951306
vt -0.147342 0.971953
vt -0.091275 0.971953
vt -0.147342 0.988897
vt -0.091275 0.988898
vt -0.147342 0.880164
vt -0.091275 0.880165
vt 0.445315 0.912486
vt 0.473422 0.883448
vt 0.473422 0.912227
vt 1.182517 0.349403
vt 1.210457 0.293271
vt 1.210624 0.349287
vt 1.182350 0.293387
vt 1.210739 0.293268
vt 0.105380 1.436630
vt 0.105385 1.570305
vt 0.105379 1.571659
vt 1.182632 0.293385
vt 1.210906 0.266346
vt 0.220806 0.183196
vt 0.247724 0.183668
vt 0.952601 0.598210
vt 0.923826 0.597736
vt 0.923779 0.177654
vt -0.193593 0.378146
vt -0.137578 0.378615
vt 0.280183 0.655593
vt 0.336748 0.655310
vt 0.578905 0.674649
vt 0.552130 0.616468
vt 0.445547 0.655687
vt 0.634984 0.838537
vt 0.551985 0.674522
vt 0.578968 0.838369
vt 0.663760 0.838653
vt 0.667144 0.618116
vt 0.832217 0.618493
vt 0.495336 0.764875
vt 0.439320 0.765133
vt 0.495336 0.656074
vt 0.804086 0.755853
vt 0.775310 0.755951
vt 0.804086 0.590505
vt 0.445547 0.170777
vt 0.445547 0.192841
vt 0.775310 0.590505
vt 0.247724 0.692750
vt 0.487941 0.848296
vt 0.663793 0.130635
vt 0.101357 0.656453
vt 0.183426 0.600387
vt 0.780124 0.020688
vt 0.825378 0.008074
vt 0.740459 0.037664
vt 0.707906 0.058348
vt 0.668822 0.107552
vt 0.683718 0.081946
vt 0.611677 0.570882
vt 0.656931 0.583496
vt 0.572012 0.553907
vt 0.539459 0.533224
vt 0.500375 0.484020
vt 0.515271 0.509625
vt 0.950744 0.553053
vt 0.359812 0.656074
vt 0.029097 0.923511
vt 0.445547 0.065465
vt 0.000062 0.656453
vt 1.090386 0.888868
vt 1.091499 0.878579
vt 1.091499 0.890447
vt 0.495918 0.760378
vt -0.193626 0.837420
vt 0.664146 0.168962
vt -0.131171 0.559220
vt 0.396244 0.618013
vt 0.147283 0.204781
vt 0.531869 0.301622
vt 0.211982 0.733119
vt 0.065678 0.656484
vt -0.166851 0.597464
vt 0.416378 -0.027978
vt 0.054351 1.146048
vt 0.663770 -0.000198
vt 0.029097 0.459904
vt 0.412401 0.656151
vt -0.091275 1.009242
vt 0.445315 0.883707
vt 0.105385 1.435276
vt 1.210906 0.349285
vt 1.182799 0.266463
vt 0.952601 0.177706
vt 0.445547 0.655970
vt 0.552048 0.838257
vt 0.832217 0.590334
vt 0.439320 0.656317
vt 0.775310 0.590586
vn 0.000000 -0.715773 0.698333
vn 0.000000 0.000000 -1.000000
vn 1.000000 -0.000003 0.000015
vn 0.000000 1.000000 0.000000
vn 0.000000 -0.502812 0.864396
vn 1.000000 0.000000 0.000000
vn 0.000000 -0.660829 0.750536
vn -0.000080 0.009097 0.999959
vn 1.000000 0.000475 0.000000
vn 0.999972 0.007318 -0.001439
vn 0.000000 1.000000 0.000001
vn 0.001903 -0.999956 0.009177
vn 0.000000 -0.660829 0.750537
vn 0.000070 0.999918 0.012812
vn 0.999991 0.004291 0.000000
vn -0.999991 0.004291 0.000000
vn -0.999995 -0.000175 -0.003123
vn -1.000000 0.000475 0.000000
vn 0.000000 -0.715772 0.698334
vn 0.000000 -0.844015 0.536319
vn 0.000000 -0.919341 0.393461
vn 0.000000 -0.963278 0.268507
vn 0.000000 -0.212882 0.977078
vn -1.000000 0.000003 -0.000015
vn -1.000000 0.000000 0.000000
vn 0.000000 -0.919342 0.393460
vn 0.000000 -0.963278 0.268506
vn 0.000000 -0.999716 0.023846
vn -0.000042 0.009159 0.999958
vn 0.000000 -0.999988 0.004991
vn 1.000000 0.000158 0.000014
vn 0.999999 -0.000004 -0.001350
vn -0.999994 -0.000254 -0.003564
vn -1.000000 -0.000315 -0.000013
vn -0.000083 0.009216 0.999958
vn -0.003039 -0.004588 -0.999985
vn 0.000000 0.999958 -0.009177
vn -1.000000 -0.000158 0.000001
vn 0.999967 0.007304 -0.003545
vn 0.999994 0.000000 -0.003527
vn -0.999999 -0.000484 -0.001392
vn 0.999999 -0.000006 -0.001378
vn 0.000003 0.999958 -0.009177
vn -0.000003 -0.999958 0.009177
vn 0.003041 0.009216 0.999953
vn -0.000061 -0.999951 -0.009871
vn 0.004260 -0.999958 0.008143
vn 0.008287 -0.999891 0.012207
vn 0.000000 -0.999799 0.020069
vn 0.000000 -0.999547 0.030081
vn 0.000000 -0.999950 0.010035
vn 0.000000 -0.009776 -0.999952
vn -0.999973 -0.007332 0.000000
vn -0.999969 -0.007304 0.002843
vn -0.888142 -0.459563 0.002275
vn -0.017724 0.999840 0.002310
vn 0.000000 -0.000000 1.000000
vn 0.000000 -0.000001 1.000000
vn 0.013275 0.000000 0.999912
vn 0.007566 0.000000 -0.999971
vn 0.000001 0.000000 1.000000
vn -1.000000 -0.000222 -0.000017
vn -0.000687 0.006390 0.999979
vn -0.000643 0.006468 0.999979
vn -0.000330 0.006428 0.999979
vn 1.000000 0.000111 0.000014
vn -0.999999 -0.000339 -0.001229
vn 0.008862 -0.999952 0.004071
vn 0.888447 0.458973 -0.002278
vn 0.008515 -0.999961 -0.002287
vn 0.017716 -0.999840 -0.002312
vn 0.016573 -0.999860 -0.002310
vn 0.999969 0.007303 -0.002842
vn -0.008519 0.999958 0.003470
vn -0.016574 0.999860 0.002306
vn 1.000000 -0.000051 -0.000006
vn 0.000000 -0.660831 0.750534
vn 0.000000 0.009041 0.999959
vn 0.999999 0.000970 -0.001374
vn 0.001895 -0.999956 0.009188
vn 0.000000 -0.660831 0.750535
vn 0.999999 0.001557 -0.000609
vn 0.999999 0.001495 -0.000640
vn 0.999999 0.001306 -0.000830
vn 0.999988 0.001031 -0.004734
vn 0.999999 0.001171 -0.001143
vn 0.999998 0.001071 -0.001842
vn -1.000000 0.000001 0.000000
vn -0.999999 0.001557 -0.000609
vn -0.999999 0.001495 -0.000640
vn -0.999999 0.001307 -0.000830
vn -0.999988 0.001031 -0.004734
vn -0.999999 0.001171 -0.001143
vn -0.999998 0.001072 -0.001842
vn -0.999994 0.000000 -0.003555
vn 0.000000 -0.844015 0.536320
vn 0.000000 -0.963278 0.268505
vn -1.000000 0.000051 0.000006
vn 0.000000 -0.999716 0.023847
vn 0.000000 0.009097 0.999959
vn 0.000000 -0.999988 0.004992
vn 0.999999 -0.000009 -0.001382
vn -0.999995 0.000000 -0.003118
vn 0.000000 0.009154 0.999958
vn -0.003041 -0.004589 -0.999985
vn 0.000000 0.999958 -0.009176
vn 0.000000 1.000000 0.000002
vn 0.999994 0.000000 -0.003555
vn 0.999967 0.007298 -0.003536
vn 0.999994 -0.000016 -0.003556
vn -0.999999 0.000971 -0.001374
vn 0.999994 -0.000011 -0.003325
vn -0.999999 -0.000243 -0.001228
vn 0.999999 -0.000013 -0.001383
vn -0.000028 0.999958 -0.009189
vn 0.000028 -0.999958 0.009187
vn -0.000061 -0.999951 -0.009870
vn 0.008513 -0.999956 0.004071
vn 0.016567 -0.999830 0.008130
vn 0.004260 -0.999941 0.010030
vn 0.008284 -0.999765 0.020050
vn 0.008863 -0.999961 0.000000
vn -0.999969 -0.007331 0.002838
vn -0.999992 -0.002956 0.002847
vn -0.017715 0.999840 0.002308
vn -0.018564 0.000000 0.999828
vn -0.000001 0.000000 1.000000
vn -1.000000 -0.000221 -0.000014
vn -0.000074 0.006351 0.999980
vn -0.000070 0.006428 0.999979
vn -0.000040 0.006390 0.999980
vn -1.000000 -0.000165 -0.000000
vn 0.017715 -0.999843 -0.000001
vn 0.999989 0.003692 -0.002846
vn 0.008514 -0.999961 -0.002287
vn 0.017715 -0.999840 -0.002312
vn 0.016572 -0.999860 -0.002310
vn 0.999969 0.007332 -0.002837
vn -0.008518 0.999958 0.003469
vn -0.016572 0.999860 0.002305
s off
f 1/1/1 2/2/1 3/3/1
f 4/4/2 5/5/2 6/6/2
f 7/7/3 8/8/3 9/9/3
f 10/10/4 11/11/4 12/12/4
f 14/13/5 1/14/5 13/15/5
f 15/16/4 16/17/4 17/18/4
f 18/19/6 19/20/6 20/21/6
f 21/22/2 22/23/2 23/24/2
f 24/25/7 25/26/7 26/27/7
f 27/28/8 28/29/8 29/30/8
f 30/31/9 31/32/9 32/33/9
f 33/34/10 34/35/10 35/36/10
f 11/37/2 21/22/2 36/38/2
f 37/39/2 11/37/2 38/40/2
f 39/41/4 40/42/4 15/16/4
f 41/43/11 31/44/11 39/41/11
f 42/45/4 21/46/4 10/10/4
f 30/47/4 22/48/4 42/45/4
f 43/49/2 4/4/2 44/50/2
f 45/51/2 43/49/2 46/52/2
f 47/53/12 48/54/12 49/55/12
f 18/56/13 50/57/13 51/58/13
f 32/59/14 52/60/14 53/61/14
f 31/32/15 41/62/15 54/63/15
f 17/64/16 55/65/16 26/66/16
f 56/67/17 45/68/17 57/69/17
f 12/70/18 37/71/18 58/72/18
f 7/73/5 59/74/5 60/75/5
f 60/76/19 61/77/19 62/78/19
f 62/78/20 63/79/20 64/80/20
f 64/80/21 65/81/21 66/82/21
f 66/82/22 67/83/22 18/84/22
f 9/85/23 52/86/23 7/73/23
f 14/87/24 29/88/24 68/89/24
f 3/3/20 69/90/20 70/91/20
f 14/87/25 71/92/25 72/93/25
f 70/91/26 73/94/26 74/95/26
f 51/96/6 75/96/6 19/96/6
f 74/95/27 76/97/27 24/98/27
f 2/99/25 72/93/25 77/100/25
f 78/101/23 29/30/23 13/15/23
f 69/102/25 77/100/25 79/103/25
f 66/104/6 20/21/6 80/105/6
f 64/106/6 80/105/6 62/107/6
f 25/108/25 81/109/25 82/110/25
f 62/107/6 83/111/6 60/112/6
f 60/112/6 84/113/6 7/7/6
f 68/114/28 8/115/28 85/116/28
f 76/117/25 86/118/25 25/108/25
f 73/119/25 79/103/25 76/117/25
f 87/120/29 88/121/29 8/122/29
f 9/123/30 68/114/30 29/124/30
f 47/125/31 9/9/31 88/126/31
f 23/24/2 89/127/2 4/4/2
f 36/38/2 23/24/2 43/49/2
f 38/40/2 36/38/2 45/51/2
f 33/34/32 90/128/32 34/35/32
f 58/72/33 38/129/33 56/67/33
f 29/88/34 28/130/34 87/131/34
f 91/132/35 49/133/35 92/134/35
f 90/135/36 32/136/36 93/137/36
f 52/60/37 9/138/37 94/139/37
f 9/140/38 47/141/38 94/142/38
f 16/17/4 10/10/4 55/143/4
f 22/144/9 30/31/9 32/33/9
f 40/42/4 42/45/4 16/17/4
f 31/44/4 30/47/4 40/42/4
f 95/145/39 33/34/39 96/146/39
f 5/147/40 89/148/40 90/128/40
f 55/65/18 12/70/18 58/72/18
f 95/145/40 5/147/40 90/128/40
f 78/149/41 58/72/41 27/150/41
f 93/151/42 53/152/42 97/153/42
f 97/153/6 98/154/6 99/155/6
f 52/60/43 92/156/43 98/157/43
f 49/55/44 48/54/44 97/158/44
f 92/134/45 49/133/45 100/159/45
f 48/54/46 90/160/46 93/161/46
f 101/162/47 102/163/47 103/164/47
f 35/165/48 104/166/48 101/162/48
f 105/167/49 101/162/49 106/168/49
f 96/169/50 35/165/50 105/167/50
f 106/168/51 103/164/51 107/170/51
f 6/6/52 95/171/52 96/172/52
f 44/50/52 6/6/52 105/173/52
f 57/69/53 46/174/53 108/175/53
f 46/52/52 44/50/52 106/176/52
f 109/177/54 110/178/54 111/179/54
f 112/180/55 113/181/55 114/182/55
f 113/183/56 109/184/56 115/185/56
f 71/186/57 116/187/57 72/188/57
f 81/189/57 19/190/57 82/191/57
f 72/188/57 84/192/57 77/193/57
f 77/193/57 83/194/57 79/195/57
f 79/195/58 80/196/58 86/197/58
f 86/197/57 20/198/57 81/189/57
f 117/199/57 85/200/57 71/186/57
f 122/201/57 124/202/57 123/203/57
f 120/204/57 126/205/57 125/206/57
f 114/207/59 121/208/59 126/205/59
f 119/209/60 125/210/60 124/211/60
f 121/208/61 125/206/61 126/205/61
f 115/212/57 111/213/57 121/208/57
f 28/130/62 113/181/62 112/180/62
f 109/214/63 113/215/63 28/29/63
f 127/216/64 34/217/64 48/218/64
f 112/219/65 128/220/65 88/121/65
f 127/221/66 47/125/66 128/222/66
f 109/177/53 57/69/53 110/178/53
f 27/150/67 56/67/67 109/177/67
f 103/164/68 129/223/68 108/224/68
f 127/221/69 128/222/69 120/225/69
f 129/223/70 102/163/70 124/226/70
f 110/227/71 129/223/71 121/228/71
f 102/163/72 104/166/72 123/229/72
f 104/230/73 34/35/73 123/231/73
f 128/232/74 112/233/74 120/234/74
f 34/235/75 127/236/75 122/237/75
f 2/2/19 69/90/19 3/3/19
f 5/5/2 95/171/2 6/6/2
f 116/238/6 85/239/6 7/7/6
f 85/239/76 8/8/76 7/7/76
f 11/11/4 37/240/4 12/12/4
f 2/241/5 1/14/5 14/13/5
f 16/17/4 55/143/4 17/18/4
f 66/104/6 18/19/6 20/21/6
f 22/23/2 89/127/2 23/24/2
f 25/26/77 118/242/77 26/27/77
f 78/101/78 27/28/78 29/30/78
f 31/32/79 52/243/79 32/33/79
f 34/35/10 104/230/10 35/36/10
f 21/22/2 23/24/2 36/38/2
f 11/37/2 36/38/2 38/40/2
f 40/42/4 16/17/4 15/16/4
f 31/44/4 40/42/4 39/41/4
f 21/46/4 11/11/4 10/10/4
f 22/48/4 21/46/4 42/45/4
f 4/4/2 6/6/2 44/50/2
f 43/49/2 44/50/2 46/52/2
f 91/244/80 47/53/80 49/55/80
f 50/57/81 54/245/81 51/58/81
f 52/60/14 98/157/14 53/61/14
f 67/246/6 54/63/6 50/247/6
f 31/32/82 54/63/82 67/246/82
f 31/32/83 67/246/83 65/248/83
f 31/32/84 65/248/84 63/249/84
f 52/243/85 31/32/85 59/250/85
f 31/32/86 63/249/86 61/251/86
f 59/250/87 31/32/87 61/251/87
f 26/66/88 74/252/88 24/253/88
f 26/66/89 55/65/89 74/252/89
f 74/252/90 55/65/90 70/254/90
f 70/254/91 55/65/91 3/255/91
f 55/65/92 78/149/92 13/256/92
f 55/65/93 1/257/93 3/255/93
f 13/256/94 1/257/94 55/65/94
f 45/68/25 46/174/25 57/69/25
f 37/71/95 38/129/95 58/72/95
f 59/74/5 61/258/5 60/75/5
f 61/77/1 63/79/1 62/78/1
f 63/79/96 65/81/96 64/80/96
f 65/81/26 67/83/26 66/82/26
f 67/83/97 50/259/97 18/84/97
f 52/86/23 59/74/23 7/73/23
f 71/92/25 14/87/25 117/260/25
f 14/87/98 68/89/98 117/260/98
f 69/90/20 73/94/20 70/91/20
f 2/99/25 14/87/25 72/93/25
f 73/94/26 76/97/26 74/95/26
f 18/19/6 51/261/6 19/20/6
f 76/97/27 25/262/27 24/98/27
f 69/102/25 2/99/25 77/100/25
f 29/30/23 14/13/23 13/15/23
f 73/119/25 69/102/25 79/103/25
f 64/106/6 66/104/6 80/105/6
f 80/105/6 83/111/6 62/107/6
f 118/263/6 25/264/6 82/265/6
f 83/111/6 84/113/6 60/112/6
f 84/113/6 116/238/6 7/7/6
f 117/266/99 68/114/99 85/116/99
f 86/118/25 81/109/25 25/108/25
f 79/103/25 86/118/25 76/117/25
f 68/267/100 87/120/100 8/122/100
f 8/115/101 68/114/101 9/123/101
f 9/9/31 8/8/31 88/126/31
f 89/127/2 5/5/2 4/4/2
f 23/24/2 4/4/2 43/49/2
f 36/38/2 43/49/2 45/51/2
f 90/128/102 48/268/102 34/35/102
f 38/129/103 45/68/103 56/67/103
f 68/89/34 29/88/34 87/131/34
f 94/269/104 91/132/104 92/134/104
f 32/136/105 53/270/105 93/137/105
f 92/156/106 52/60/106 94/139/106
f 47/141/38 91/271/38 94/142/38
f 10/10/107 12/12/107 55/143/107
f 89/148/108 22/144/108 32/33/108
f 42/45/11 10/10/11 16/17/11
f 30/47/11 42/45/11 40/42/11
f 33/34/109 35/36/109 96/146/109
f 89/148/110 32/33/110 90/128/110
f 78/149/111 55/65/111 58/72/111
f 33/34/112 95/145/112 90/128/112
f 58/72/113 56/67/113 27/150/113
f 53/152/114 98/154/114 97/153/114
f 98/154/6 100/272/6 99/155/6
f 92/156/115 100/273/115 98/157/115
f 99/274/116 49/55/116 97/158/116
f 49/133/45 99/275/45 100/159/45
f 97/158/117 48/54/117 93/161/117
f 102/163/118 129/223/118 103/164/118
f 104/166/119 102/163/119 101/162/119
f 101/162/120 103/164/120 106/168/120
f 35/165/121 101/162/121 105/167/121
f 103/164/122 108/224/122 107/170/122
f 105/173/52 6/6/52 96/172/52
f 106/176/52 44/50/52 105/173/52
f 46/174/53 107/276/53 108/175/53
f 107/277/52 46/52/52 106/176/52
f 130/278/123 109/177/123 111/179/123
f 113/181/124 115/279/124 114/182/124
f 109/184/125 130/280/125 115/185/125
f 116/187/57 84/192/57 72/188/57
f 19/190/57 75/281/57 82/191/57
f 84/192/57 83/194/57 77/193/57
f 83/194/57 80/196/57 79/195/57
f 80/196/58 20/198/58 86/197/58
f 20/198/57 19/190/57 81/189/57
f 85/200/57 116/187/57 71/186/57
f 118/96/6 82/96/6 81/96/6
f 119/282/57 124/202/57 122/201/57
f 114/207/57 126/205/57 120/204/57
f 115/212/126 121/208/126 114/207/126
f 120/283/2 125/210/2 119/209/2
f 124/284/127 125/206/127 121/208/127
f 130/285/57 111/213/57 115/212/57
f 87/131/128 28/130/128 112/180/128
f 27/28/129 109/214/129 28/29/129
f 47/286/130 127/216/130 48/218/130
f 87/120/131 112/219/131 88/121/131
f 47/125/66 88/126/66 128/222/66
f 57/69/53 108/175/53 110/178/53
f 56/67/132 57/69/132 109/177/132
f 129/223/133 110/227/133 108/224/133
f 119/287/134 127/221/134 120/225/134
f 121/228/135 129/223/135 124/226/135
f 111/288/136 110/227/136 121/228/136
f 124/226/137 102/163/137 123/229/137
f 34/35/138 122/289/138 123/231/138
f 112/233/139 114/290/139 120/234/139
f 127/236/140 119/291/140 122/237/140
