# Blender v2.69 (sub 0) OBJ File: 'shield.blend'
# www.blender.org
o Icosphere
v -0.010289 -0.208731 0.000000
v 0.140750 -0.093349 0.109735
v 0.140750 -0.093349 -0.109735
v 0.047402 0.093349 0.177557
v 0.047402 0.093349 -0.177557
v 0.176405 0.093348 0.000000
v -0.010289 0.208731 0.000000
v 0.032121 -0.202041 0.030812
v 0.078489 -0.177558 0.064500
v 0.116942 -0.137245 0.092438
v 0.100744 -0.104846 0.142295
v 0.044580 -0.109738 0.168866
v -0.016476 -0.104846 0.180382
v 0.159353 -0.104846 -0.061625
v 0.167268 -0.109737 0.000000
v 0.159353 -0.104846 0.061625
v 0.032121 -0.202041 -0.030812
v 0.078489 -0.177558 -0.064500
v 0.116942 -0.137245 -0.092438
v -0.016476 -0.104846 -0.180382
v 0.044580 -0.109738 -0.168866
v 0.100744 -0.104846 -0.142295
v 0.189388 0.052423 0.030813
v 0.188226 -0.000000 0.064501
v 0.169365 -0.052423 0.092438
v 0.169365 -0.052423 -0.092438
v 0.188226 0.000000 -0.064501
v 0.189388 0.052423 -0.030813
v 0.022109 0.052423 0.199426
v -0.010289 -0.000000 0.208731
v 0.133142 -0.052423 0.142295
v 0.112400 0.000000 0.168867
v 0.080719 0.052423 0.180383
v 0.080719 0.052423 -0.180383
v 0.112400 -0.000000 -0.168867
v 0.133142 -0.052423 -0.142295
v -0.010289 0.000000 -0.208731
v 0.022109 0.052423 -0.199426
v 0.163177 0.104845 0.049856
v 0.133357 0.109737 0.104365
v 0.090731 0.104846 0.149569
v -0.004102 0.104846 0.180382
v -0.004102 0.104846 -0.180382
v 0.090731 0.104846 -0.149569
v 0.133357 0.109737 -0.104365
v 0.163177 0.104845 -0.049856
v 0.005910 0.202041 0.049856
v 0.023620 0.177558 0.104365
v 0.038308 0.137245 0.149569
v 0.146978 0.137244 0.000000
v 0.099447 0.177557 0.000000
v 0.042133 0.202041 0.000000
v 0.005910 0.202041 -0.049856
v 0.023620 0.177558 -0.104365
v 0.038308 0.137245 -0.149569
v 0.000730 -0.151040 0.143646
v 0.018557 -0.186695 0.088778
v 0.065231 -0.151040 0.122688
v 0.129731 -0.151040 -0.033910
v 0.129731 -0.151040 0.033910
v 0.083058 -0.186695 0.000000
v 0.065231 -0.151040 -0.122688
v 0.018557 -0.186695 -0.088778
v 0.000730 -0.151040 -0.143646
v 0.198442 0.000000 0.000000
v 0.187424 -0.057692 0.033910
v 0.187424 -0.057692 -0.033910
v 0.054212 0.000000 0.198515
v 0.018557 -0.057693 0.198515
v 0.083059 -0.057693 0.177557
v 0.054212 -0.000000 -0.198515
v 0.083059 -0.057693 -0.177557
v 0.018557 -0.057693 -0.198515
v 0.129732 0.057692 0.143647
v 0.158578 -0.000000 0.122689
v 0.169596 0.057692 0.088778
v 0.169596 0.057692 -0.088778
v 0.158578 0.000000 -0.122688
v 0.129732 0.057693 -0.143646
v 0.065230 0.186695 0.054868
v 0.083057 0.151040 0.109736
v 0.122922 0.151040 0.054868
v -0.021308 0.151040 0.143646
v -0.021308 0.151040 -0.143646
v 0.065230 0.186695 -0.054868
v 0.122922 0.151040 -0.054868
v 0.083057 0.151040 -0.109736
v -0.026030 0.000000 -0.651291
v 0.026030 -0.000000 -0.600000
v -0.026030 -0.127061 -0.638777
v 0.026029 -0.117054 -0.588471
v -0.026030 -0.249238 -0.601715
v 0.026029 -0.229610 -0.554328
v -0.026030 -0.361838 -0.541529
v 0.026029 -0.333342 -0.498882
v -0.026030 -0.460533 -0.460533
v 0.026029 -0.424264 -0.424264
v -0.026030 -0.541529 -0.361838
v 0.026029 -0.498882 -0.333342
v -0.026030 -0.601715 -0.249238
v 0.026029 -0.554328 -0.229610
v -0.026030 -0.638777 -0.127061
v 0.026029 -0.588471 -0.117054
v -0.026030 -0.651291 -0.000000
v 0.026029 -0.600000 -0.000000
v -0.026030 -0.638777 0.127061
v 0.026029 -0.588471 0.117054
v -0.026030 -0.601715 0.249238
v 0.026029 -0.554328 0.229610
v -0.026030 -0.541529 0.361838
v 0.026029 -0.498882 0.333342
v -0.026030 -0.460533 0.460533
v 0.026029 -0.424264 0.424264
v -0.026030 -0.361838 0.541529
v 0.026029 -0.333342 0.498882
v -0.026030 -0.249238 0.601715
v 0.026029 -0.229610 0.554328
v -0.026030 -0.127061 0.638777
v 0.026029 -0.117054 0.588471
v -0.026030 0.000000 0.651291
v 0.026030 0.000000 0.600000
v -0.026029 0.127061 0.638777
v 0.026030 0.117054 0.588471
v -0.026029 0.249239 0.601715
v 0.026030 0.229610 0.554328
v -0.026029 0.361839 0.541529
v 0.026030 0.333342 0.498882
v -0.026029 0.460533 0.460532
v 0.026030 0.424264 0.424264
v -0.026029 0.541529 0.361838
v 0.026030 0.498882 0.333342
v -0.026029 0.601715 0.249238
v 0.026030 0.554328 0.229610
v -0.026029 0.638777 0.127060
v 0.026030 0.588471 0.117054
v -0.026029 0.651291 -0.000001
v 0.026030 0.600000 -0.000001
v -0.026029 0.638777 -0.127061
v 0.026030 0.588471 -0.117055
v -0.026029 0.601715 -0.249239
v 0.026030 0.554327 -0.229611
v -0.026029 0.541529 -0.361839
v 0.026030 0.498881 -0.333343
v -0.026029 0.460532 -0.460533
v 0.026030 0.424264 -0.424265
v -0.026029 0.361837 -0.541530
v 0.026030 0.333341 -0.498882
v -0.026029 0.249238 -0.601715
v 0.026030 0.229609 -0.554328
v -0.026029 0.127060 -0.638777
v 0.026030 0.117053 -0.588471
vt 0.216848 0.473760
vt 0.222275 0.459985
vt 0.231944 0.470152
vt 0.222275 0.486602
vt 0.285716 0.473760
vt 0.295933 0.470152
vt 0.295933 0.486602
vt 0.206631 0.486602
vt 0.280288 0.486602
vt 0.195566 0.532344
vt 0.204348 0.535952
vt 0.204348 0.546118
vt 0.306998 0.532344
vt 0.307884 0.535952
vt 0.298215 0.546118
vt 0.251282 0.532344
vt 0.266926 0.535951
vt 0.251282 0.546118
vt 0.206207 0.455656
vt 0.198293 0.468617
vt 0.194679 0.470152
vt 0.223424 0.444468
vt 0.212783 0.455656
vt 0.206631 0.470152
vt 0.241613 0.439653
vt 0.231042 0.447335
vt 0.270619 0.470152
vt 0.280288 0.459985
vt 0.251282 0.468617
vt 0.261922 0.455656
vt 0.240641 0.455657
vt 0.271521 0.447335
vt 0.251282 0.444468
vt 0.260950 0.439653
vt 0.251282 0.437553
vt 0.289780 0.455656
vt 0.279140 0.444468
vt 0.304271 0.468617
vt 0.296357 0.455656
vt 0.307884 0.470152
vt 0.241613 0.519502
vt 0.260951 0.519502
vt 0.231042 0.503052
vt 0.251282 0.503052
vt 0.240641 0.484948
vt 0.271522 0.503052
vt 0.261922 0.484948
vt 0.188703 0.519502
vt 0.194679 0.519502
vt 0.185783 0.503052
vt 0.188989 0.503052
vt 0.198293 0.503052
vt 0.188989 0.484948
vt 0.195566 0.484948
vt 0.307885 0.519502
vt 0.313860 0.519502
vt 0.304271 0.503052
vt 0.313574 0.503052
vt 0.306998 0.484948
vt 0.316780 0.503052
vt 0.313574 0.484948
vt 0.206207 0.521155
vt 0.212783 0.503052
vt 0.218533 0.537487
vt 0.223424 0.521155
vt 0.235637 0.535951
vt 0.194679 0.535952
vt 0.279140 0.521155
vt 0.289780 0.503052
vt 0.284031 0.537487
vt 0.296357 0.521155
vt 0.298216 0.535952
vt 0.235637 0.566451
vt 0.251282 0.566451
vt 0.251282 0.568550
vt 0.218533 0.558768
vt 0.234065 0.561635
vt 0.216847 0.550447
vt 0.251282 0.558768
vt 0.234065 0.550447
vt 0.206207 0.550447
vt 0.296357 0.550447
vt 0.284031 0.558768
vt 0.266926 0.566451
vt 0.268499 0.561635
vt 0.268499 0.550447
vt 0.285716 0.550447
vt 0.455652 0.503052
vt 0.439557 0.503052
vt 0.451725 0.463181
vt 0.435940 0.466321
vt 0.440095 0.424843
vt 0.425226 0.431002
vt 0.421210 0.389510
vt 0.407827 0.398451
vt 0.395793 0.358540
vt 0.384413 0.369921
vt 0.364824 0.333124
vt 0.355882 0.346506
vt 0.329491 0.314238
vt 0.323332 0.329108
vt 0.291152 0.302608
vt 0.288013 0.318394
vt 0.251282 0.298681
vt 0.251282 0.314776
vt 0.211411 0.302608
vt 0.214551 0.318394
vt 0.173073 0.314238
vt 0.179232 0.329108
vt 0.137740 0.333124
vt 0.146681 0.346506
vt 0.106770 0.358540
vt 0.118151 0.369921
vt 0.081354 0.389510
vt 0.094736 0.398451
vt 0.062468 0.424843
vt 0.077338 0.431002
vt 0.050838 0.463181
vt 0.066624 0.466321
vt 0.046911 0.503052
vt 0.063006 0.503052
vt 0.050838 0.542923
vt 0.066624 0.539783
vt 0.062468 0.581261
vt 0.077338 0.575102
vt 0.081354 0.616594
vt 0.094736 0.607652
vt 0.106770 0.647564
vt 0.118151 0.636183
vt 0.137740 0.672980
vt 0.146682 0.659597
vt 0.179232 0.676996
vt 0.173073 0.691866
vt 0.214551 0.687710
vt 0.211411 0.703495
vt 0.251282 0.707422
vt 0.251282 0.691327
vt 0.291153 0.703495
vt 0.288013 0.687710
vt 0.323332 0.676996
vt 0.329491 0.691865
vt 0.364824 0.672979
vt 0.355882 0.659597
vt 0.384413 0.636182
vt 0.395794 0.647563
vt 0.421210 0.616594
vt 0.407827 0.607652
vt 0.440096 0.581261
vt 0.451725 0.542922
vt 0.435940 0.539782
vt 0.425226 0.575101
vt 0.541201 0.511921
vt 0.545127 0.472050
vt 0.545127 0.551791
vt 0.556757 0.433712
vt 0.575643 0.398379
vt 0.601059 0.367409
vt 0.632029 0.341993
vt 0.667362 0.323107
vt 0.705700 0.311477
vt 0.745571 0.307550
vt 0.785442 0.311477
vt 0.823780 0.323107
vt 0.859113 0.341993
vt 0.890083 0.367409
vt 0.915499 0.398379
vt 0.934385 0.433712
vt 0.946015 0.472050
vt 0.556757 0.590130
vt 0.575643 0.625463
vt 0.601059 0.656432
vt 0.915499 0.625463
vt 0.946015 0.551792
vt 0.934385 0.590130
vt 0.890083 0.656433
vt 0.785442 0.712364
vt 0.859113 0.681849
vt 0.823780 0.700735
vt 0.745571 0.716291
vt 0.667362 0.700734
vt 0.632029 0.681849
vt 0.705700 0.712364
vt 0.949942 0.511921
vn 0.723594 -0.447218 0.525712
vn 0.604205 -0.664968 0.438978
vn 0.815180 -0.503800 0.285714
vn 0.864986 -0.243049 0.438978
vn 0.723594 -0.447218 -0.525712
vn 0.523637 -0.503800 -0.686972
vn 0.684805 -0.243049 -0.686972
vn 0.684805 -0.243049 0.686972
vn 0.864986 -0.243049 -0.438978
vn 0.276376 0.447218 0.850642
vn 0.491531 0.503800 0.710288
vn 0.230781 0.664968 0.710288
vn 0.276376 0.447218 -0.850642
vn 0.125224 0.537595 -0.833853
vn 0.230781 0.664968 -0.710288
vn 0.894406 0.447188 0.000000
vn 0.827448 0.503800 -0.247963
vn 0.746849 0.664968 0.000000
vn 0.174576 -0.694441 0.698051
vn 0.262856 -0.525712 0.808985
vn 0.117937 -0.519844 0.846081
vn 0.255412 -0.856115 0.449256
vn 0.353832 -0.727531 0.587756
vn 0.523637 -0.503800 0.686972
vn 0.276546 -0.953150 0.122588
vn 0.425306 -0.850642 0.309000
vn 0.815180 -0.503800 -0.285714
vn 0.604205 -0.664968 -0.438978
vn 0.850642 -0.525712 0.000000
vn 0.668325 -0.727531 -0.154881
vn 0.668325 -0.727531 0.154881
vn 0.425306 -0.850642 -0.309000
vn 0.455123 -0.890408 0.000000
vn 0.276546 -0.953150 -0.122588
vn 0.155817 -0.987786 0.000000
vn 0.353832 -0.727531 -0.587756
vn 0.255411 -0.856115 -0.449257
vn 0.262856 -0.525712 -0.808985
vn 0.174575 -0.694441 -0.698051
vn 0.117937 -0.519844 -0.846081
vn 0.957823 0.243049 0.153264
vn 0.957823 0.243049 -0.153264
vn 0.951048 0.000000 0.309000
vn 0.999939 -0.008850 0.000000
vn 0.949614 -0.272408 0.154881
vn 0.951048 0.000000 -0.309000
vn 0.949614 -0.272408 -0.154881
vn 0.225159 0.231967 0.946306
vn 0.441725 0.243049 0.863582
vn 0.156422 -0.012628 0.987610
vn 0.309000 -0.008850 0.951018
vn 0.587756 0.000000 0.809015
vn 0.223262 -0.274391 0.935342
vn 0.440748 -0.272408 0.855251
vn 0.441725 0.243049 -0.863582
vn 0.225159 0.231967 -0.946306
vn 0.587756 0.000000 -0.809015
vn 0.309000 -0.008850 -0.951018
vn 0.440748 -0.272408 -0.855251
vn 0.156422 -0.012628 -0.987610
vn 0.223262 -0.274391 -0.935341
vn 0.677206 0.272408 0.683493
vn 0.808985 0.008850 0.587756
vn 0.688162 0.525712 0.499985
vn 0.859310 0.272408 0.432844
vn 0.827448 0.503800 0.247963
vn 0.125224 0.537595 0.833853
vn 0.859310 0.272408 -0.432844
vn 0.808985 0.008850 -0.587756
vn 0.688162 0.525712 -0.499985
vn 0.677206 0.272408 -0.683493
vn 0.491531 0.503800 -0.710288
vn 0.192837 0.958588 0.209576
vn 0.260750 0.965392 0.000000
vn 0.126592 0.991955 0.000000
vn 0.240058 0.828505 0.505917
vn 0.368206 0.890408 0.267495
vn 0.449629 0.727531 0.518143
vn 0.525712 0.850642 0.000000
vn 0.631733 0.727531 0.267495
vn 0.091738 0.700364 0.707866
vn 0.091738 0.700364 -0.707866
vn 0.240058 0.828505 -0.505917
vn 0.192837 0.958588 -0.209576
vn 0.368206 0.890408 -0.267495
vn 0.631733 0.727531 -0.267495
vn 0.449629 0.727531 -0.518143
vn -0.366985 0.000000 -0.930204
vn 0.913755 0.000000 -0.406232
vn -0.366985 -0.181463 -0.912320
vn 0.913755 -0.079257 -0.398450
vn -0.366985 -0.355968 -0.859401
vn 0.913755 -0.155461 -0.375317
vn -0.366985 -0.516800 -0.773431
vn 0.913755 -0.225684 -0.337779
vn -0.366985 -0.657735 -0.657735
vn 0.913755 -0.287271 -0.287240
vn -0.366985 -0.773431 -0.516800
vn 0.913755 -0.337779 -0.225684
vn -0.366985 -0.859401 -0.355968
vn 0.913755 -0.375317 -0.155461
vn -0.366985 -0.912320 -0.181463
vn 0.913755 -0.398450 -0.079257
vn -0.366985 -0.930204 0.000000
vn 0.913755 -0.406232 0.000000
vn -0.366985 -0.912320 0.181463
vn 0.913755 -0.398450 0.079257
vn -0.366985 -0.859401 0.355968
vn 0.913755 -0.375317 0.155461
vn -0.366985 -0.773431 0.516800
vn 0.913755 -0.337779 0.225684
vn -0.366985 -0.657735 0.657735
vn 0.913755 -0.287271 0.287240
vn -0.366985 -0.516800 0.773431
vn 0.913755 -0.225684 0.337779
vn -0.366985 -0.355968 0.859401
vn 0.913755 -0.155461 0.375317
vn -0.366985 -0.181463 0.912320
vn 0.913755 -0.079257 0.398450
vn -0.366985 0.000000 0.930204
vn 0.913755 0.000000 0.406232
vn -0.366985 0.181463 0.912320
vn 0.913755 0.079257 0.398450
vn -0.366985 0.355968 0.859401
vn 0.913755 0.155461 0.375317
vn -0.366985 0.516800 0.773431
vn 0.913755 0.225684 0.337779
vn -0.366985 0.657735 0.657735
vn 0.913755 0.287240 0.287240
vn -0.366985 0.773431 0.516770
vn 0.913755 0.337779 0.225684
vn 0.913755 0.375317 0.155461
vn -0.366985 0.859401 0.355968
vn 0.913755 0.398450 0.079257
vn -0.366985 0.912320 0.181463
vn -0.366985 0.930204 0.000000
vn 0.913755 0.406232 0.000000
vn -0.366985 0.912320 -0.181463
vn 0.913755 0.398450 -0.079257
vn 0.913755 0.375317 -0.155461
vn -0.366985 0.859401 -0.355968
vn -0.366985 0.773431 -0.516800
vn 0.913755 0.337779 -0.225684
vn 0.913755 0.287240 -0.287271
vn -0.366985 0.657735 -0.657735
vn -0.366985 0.516770 -0.773431
vn 0.913755 0.225684 -0.337779
vn -0.366985 0.355968 -0.859401
vn -0.366985 0.181463 -0.912320
vn 0.913755 0.079257 -0.398450
vn 0.913755 0.155461 -0.375317
s 1
f 2/1/1 10/2/2 16/3/3
f 2/1/1 16/3/3 25/4/4
f 3/5/5 22/6/6 36/7/7
f 2/1/1 25/4/4 31/8/8
f 3/5/5 36/7/7 26/9/9
f 4/10/10 41/11/11 49/12/12
f 5/13/13 43/14/14 55/15/15
f 6/16/16 46/17/17 50/18/18
f 56/19/19 12/20/20 13/21/21
f 57/22/22 58/23/23 56/19/19
f 56/19/19 58/23/23 12/20/20
f 58/23/23 11/24/24 12/20/20
f 8/25/25 9/26/26 57/22/22
f 57/22/22 9/26/26 58/23/23
f 9/26/26 10/2/2 58/23/23
f 58/23/23 10/2/2 11/24/24
f 10/2/2 2/1/1 11/24/24
f 14/27/27 19/28/28 3/5/5
f 15/29/29 59/30/30 14/27/27
f 16/3/3 60/31/31 15/29/29
f 14/27/27 59/30/30 19/28/28
f 59/30/30 18/32/32 19/28/28
f 15/29/29 60/31/31 59/30/30
f 60/31/31 61/33/33 59/30/30
f 59/30/30 61/33/33 18/32/32
f 61/33/33 17/34/34 18/32/32
f 16/3/3 10/2/2 60/31/31
f 10/2/2 9/26/26 60/31/31
f 60/31/31 9/26/26 61/33/33
f 9/26/26 8/25/25 61/33/33
f 61/33/33 8/25/25 17/34/34
f 8/25/25 1/35/35 17/34/34
f 19/28/28 22/6/6 3/5/5
f 18/32/32 62/36/36 19/28/28
f 17/34/34 63/37/37 18/32/32
f 19/28/28 62/36/36 22/6/6
f 62/36/36 21/38/38 22/6/6
f 18/32/32 63/37/37 62/36/36
f 63/37/37 64/39/39 62/36/36
f 62/36/36 64/39/39 21/38/38
f 64/39/39 20/40/40 21/38/38
f 23/41/41 28/42/42 6/16/16
f 24/43/43 65/44/44 23/41/41
f 25/4/4 66/45/45 24/43/43
f 23/41/41 65/44/44 28/42/42
f 65/44/44 27/46/46 28/42/42
f 24/43/43 66/45/45 65/44/44
f 66/45/45 67/47/47 65/44/44
f 65/44/44 67/47/47 27/46/46
f 67/47/47 26/9/9 27/46/46
f 25/4/4 16/3/3 66/45/45
f 16/3/3 15/29/29 66/45/45
f 66/45/45 15/29/29 67/47/47
f 15/29/29 14/27/27 67/47/47
f 67/47/47 14/27/27 26/9/9
f 14/27/27 3/5/5 26/9/9
f 29/48/48 33/49/49 4/10/10
f 30/50/50 68/51/51 29/48/48
f 29/48/48 68/51/51 33/49/49
f 68/51/51 32/52/52 33/49/49
f 30/50/50 69/53/53 68/51/51
f 69/53/53 70/54/54 68/51/51
f 68/51/51 70/54/54 32/52/52
f 70/54/54 31/8/8 32/52/52
f 13/21/21 12/20/20 69/53/53
f 69/53/53 12/20/20 70/54/54
f 12/20/20 11/24/24 70/54/54
f 70/54/54 11/24/24 31/8/8
f 11/24/24 2/1/1 31/8/8
f 34/55/55 38/56/56 5/13/13
f 35/57/57 71/58/58 34/55/55
f 36/7/7 72/59/59 35/57/57
f 34/55/55 71/58/58 38/56/56
f 71/58/58 37/60/60 38/56/56
f 35/57/57 72/59/59 71/58/58
f 72/59/59 73/61/61 71/58/58
f 71/58/58 73/61/61 37/60/60
f 36/7/7 22/6/6 72/59/59
f 22/6/6 21/38/38 72/59/59
f 72/59/59 21/38/38 73/61/61
f 21/38/38 20/40/40 73/61/61
f 33/49/49 41/11/11 4/10/10
f 32/52/52 74/62/62 33/49/49
f 31/8/8 75/63/63 32/52/52
f 33/49/49 74/62/62 41/11/11
f 74/62/62 40/64/64 41/11/11
f 32/52/52 75/63/63 74/62/62
f 75/63/63 76/65/65 74/62/62
f 74/62/62 76/65/65 40/64/64
f 76/65/65 39/66/66 40/64/64
f 31/8/8 25/4/4 75/63/63
f 25/4/4 24/43/43 75/63/63
f 75/63/63 24/43/43 76/65/65
f 24/43/43 23/41/41 76/65/65
f 76/65/65 23/41/41 39/66/66
f 23/41/41 6/16/16 39/66/66
f 29/48/48 4/10/10 42/67/67
f 38/56/56 43/14/14 5/13/13
f 28/42/42 46/17/17 6/16/16
f 27/46/46 77/68/68 28/42/42
f 26/9/9 78/69/69 27/46/46
f 28/42/42 77/68/68 46/17/17
f 77/68/68 45/70/70 46/17/17
f 27/46/46 78/69/69 77/68/68
f 78/69/69 79/71/71 77/68/68
f 77/68/68 79/71/71 45/70/70
f 79/71/71 44/72/72 45/70/70
f 26/9/9 36/7/7 78/69/69
f 36/7/7 35/57/57 78/69/69
f 78/69/69 35/57/57 79/71/71
f 35/57/57 34/55/55 79/71/71
f 79/71/71 34/55/55 44/72/72
f 34/55/55 5/13/13 44/72/72
f 47/73/73 52/74/74 7/75/75
f 48/76/76 80/77/77 47/73/73
f 49/12/12 81/78/78 48/76/76
f 47/73/73 80/77/77 52/74/74
f 80/77/77 51/79/79 52/74/74
f 48/76/76 81/78/78 80/77/77
f 81/78/78 82/80/80 80/77/77
f 80/77/77 82/80/80 51/79/79
f 82/80/80 50/18/18 51/79/79
f 49/12/12 41/11/11 81/78/78
f 41/11/11 40/64/64 81/78/78
f 81/78/78 40/64/64 82/80/80
f 40/64/64 39/66/66 82/80/80
f 82/80/80 39/66/66 50/18/18
f 39/66/66 6/16/16 50/18/18
f 83/81/81 49/12/12 48/76/76
f 83/81/81 42/67/67 49/12/12
f 42/67/67 4/10/10 49/12/12
f 55/15/15 84/82/82 54/83/83
f 55/15/15 43/14/14 84/82/82
f 52/74/74 53/84/84 7/75/75
f 51/79/79 85/85/85 52/74/74
f 50/18/18 86/86/86 51/79/79
f 52/74/74 85/85/85 53/84/84
f 85/85/85 54/83/83 53/84/84
f 51/79/79 86/86/86 85/85/85
f 86/86/86 87/87/87 85/85/85
f 85/85/85 87/87/87 54/83/83
f 87/87/87 55/15/15 54/83/83
f 50/18/18 46/17/17 86/86/86
f 46/17/17 45/70/70 86/86/86
f 86/86/86 45/70/70 87/87/87
f 45/70/70 44/72/72 87/87/87
f 87/87/87 44/72/72 55/15/15
f 44/72/72 5/13/13 55/15/15
f 88/88/88 89/89/89 90/90/90
f 90/90/90 91/91/91 92/92/92
f 92/92/92 93/93/93 94/94/94
f 94/94/94 95/95/95 96/96/96
f 96/96/96 97/97/97 98/98/98
f 98/98/98 99/99/99 100/100/100
f 100/100/100 101/101/101 102/102/102
f 102/102/102 103/103/103 104/104/104
f 104/104/104 105/105/105 106/106/106
f 106/106/106 107/107/107 108/108/108
f 108/108/108 109/109/109 110/110/110
f 110/110/110 111/111/111 112/112/112
f 112/112/112 113/113/113 114/114/114
f 114/114/114 115/115/115 116/116/116
f 116/116/116 117/117/117 118/118/118
f 118/118/118 119/119/119 120/120/120
f 120/120/120 121/121/121 122/122/122
f 122/122/122 123/123/123 124/124/124
f 124/124/124 125/125/125 126/126/126
f 126/126/126 127/127/127 128/128/128
f 128/128/128 129/129/129 130/130/130
f 130/130/130 131/131/131 133/132/132
f 132/133/133 133/132/132 135/134/134
f 134/135/135 135/134/134 136/136/136
f 136/136/136 137/137/137 138/138/138
f 138/138/138 139/139/139 141/140/140
f 140/141/141 141/140/140 142/142/142
f 142/142/142 143/143/143 145/144/144
f 144/145/145 145/144/144 146/146/146
f 146/146/146 147/147/147 148/148/148
f 91/91/91 89/89/89 93/93/93
f 150/149/149 151/150/150 88/88/88
f 148/148/148 149/151/151 150/149/149
f 88/152/88 90/153/90 150/154/149
f 89/89/89 91/91/91 90/90/90
f 91/91/91 93/93/93 92/92/92
f 93/93/93 95/95/95 94/94/94
f 95/95/95 97/97/97 96/96/96
f 97/97/97 99/99/99 98/98/98
f 99/99/99 101/101/101 100/100/100
f 101/101/101 103/103/103 102/102/102
f 103/103/103 105/105/105 104/104/104
f 105/105/105 107/107/107 106/106/106
f 107/107/107 109/109/109 108/108/108
f 109/109/109 111/111/111 110/110/110
f 111/111/111 113/113/113 112/112/112
f 113/113/113 115/115/115 114/114/114
f 115/115/115 117/117/117 116/116/116
f 117/117/117 119/119/119 118/118/118
f 119/119/119 121/121/121 120/120/120
f 121/121/121 123/123/123 122/122/122
f 123/123/123 125/125/125 124/124/124
f 125/125/125 127/127/127 126/126/126
f 127/127/127 129/129/129 128/128/128
f 129/129/129 131/131/131 130/130/130
f 132/133/133 130/130/130 133/132/132
f 134/135/135 132/133/133 135/134/134
f 135/134/134 137/137/137 136/136/136
f 137/137/137 139/139/139 138/138/138
f 140/141/141 138/138/138 141/140/140
f 141/140/140 143/143/143 142/142/142
f 144/145/145 142/142/142 145/144/144
f 145/144/144 147/147/147 146/146/146
f 147/147/147 149/151/151 148/148/148
f 89/89/89 151/150/150 93/93/93
f 151/150/150 149/151/151 93/93/93
f 149/151/151 147/147/147 93/93/93
f 147/147/147 145/144/144 93/93/93
f 145/144/144 143/143/143 93/93/93
f 143/143/143 141/140/140 93/93/93
f 141/140/140 139/139/139 93/93/93
f 139/139/139 137/137/137 93/93/93
f 137/137/137 135/134/134 93/93/93
f 135/134/134 133/132/132 93/93/93
f 133/132/132 131/131/131 93/93/93
f 115/115/115 119/119/119 117/117/117
f 131/131/131 129/129/129 93/93/93
f 113/113/113 119/119/119 115/115/115
f 113/113/113 121/121/121 119/119/119
f 105/105/105 109/109/109 107/107/107
f 101/101/101 105/105/105 103/103/103
f 101/101/101 109/109/109 105/105/105
f 97/97/97 101/101/101 99/99/99
f 97/97/97 109/109/109 101/101/101
f 97/97/97 111/111/111 109/109/109
f 95/95/95 111/111/111 97/97/97
f 129/129/129 127/127/127 125/125/125
f 93/93/93 129/129/129 125/125/125
f 93/93/93 125/125/125 123/123/123
f 93/93/93 123/123/123 121/121/121
f 93/93/93 121/121/121 113/113/113
f 95/95/95 93/93/93 111/111/111
f 93/93/93 113/113/113 111/111/111
f 151/150/150 89/89/89 88/88/88
f 149/151/151 151/150/150 150/149/149
f 90/153/90 92/155/92 150/154/149
f 92/155/92 94/156/94 150/154/149
f 94/156/94 96/157/96 150/154/149
f 96/157/96 98/158/98 150/154/149
f 98/158/98 100/159/100 150/154/149
f 100/159/100 102/160/102 150/154/149
f 102/160/102 104/161/104 150/154/149
f 104/161/104 106/162/106 150/154/149
f 106/162/106 108/163/108 150/154/149
f 108/163/108 110/164/110 150/154/149
f 110/164/110 112/165/112 150/154/149
f 112/165/112 114/166/114 116/167/116
f 150/154/149 112/165/112 116/167/116
f 150/154/149 116/167/116 118/168/118
f 148/169/148 150/154/149 118/168/118
f 146/170/146 148/169/148 144/171/145
f 148/169/148 118/168/118 144/171/145
f 126/172/126 122/173/122 124/174/124
f 128/175/128 122/173/122 126/172/126
f 134/176/135 130/177/130 132/178/133
f 136/179/136 130/177/130 134/176/135
f 136/179/136 128/175/128 130/177/130
f 136/179/136 122/173/122 128/175/128
f 144/171/145 140/180/141 142/181/142
f 144/171/145 118/168/118 140/180/141
f 140/180/141 136/179/136 138/182/138
f 140/180/141 118/168/118 136/179/136
f 118/168/118 120/183/120 136/179/136
f 120/183/120 122/173/122 136/179/136
