# Blender v2.69 (sub 0) OBJ File: ''
# www.blender.org
o shr2.tga
v 2.958590 0.099873 -5.150159
v 3.774016 2.365574 -6.460411
v 4.590037 1.245535 -3.181922
v 6.196158 0.099872 -1.320849
v 5.655750 2.385797 -0.131011
v 2.845766 2.367072 -0.779648
v 3.528429 0.099872 -0.770772
v 5.632263 0.099874 -5.660473
v 6.620760 2.789508 -5.162949
v 7.256896 2.367073 -3.925406
v 6.831151 0.099873 -3.295200
v 2.348758 0.099873 -3.183254
v 1.902222 1.818422 -1.965320
v 4.421613 0.201240 -0.962248
v 5.237040 2.466941 -2.272500
v 6.053061 1.346902 1.005989
v 7.659182 0.201239 2.867062
v 7.118774 2.487163 4.056901
v 4.308790 2.468438 3.408263
v 4.991453 0.201238 3.417140
v 7.095286 0.201240 -1.472561
v 8.083784 2.890874 -0.975038
v 8.719919 2.468439 0.262505
v 8.294174 0.201239 0.892711
v 3.811782 0.201239 1.004657
v 3.365246 1.919788 2.222591
v -7.109246 -0.220320 -1.917966
v -6.293819 2.045381 -3.228219
v -5.477798 0.925342 0.050271
v -3.871678 -0.220321 1.911343
v -4.412086 2.065604 3.101181
v -7.222070 2.046879 2.452544
v -6.539406 -0.220321 2.461421
v -4.435573 -0.220320 -2.428280
v -3.447076 2.469315 -1.930756
v -2.810940 2.046879 -0.693213
v -3.236685 -0.220320 -0.063008
v -7.719077 -0.220320 0.048938
v -8.165613 1.498229 1.266872
v -4.894861 -0.879077 -5.086510
v -4.079434 1.386624 -6.396763
v -3.263413 0.266585 -3.118273
v -1.657292 -0.879078 -1.257200
v -2.197700 1.406847 -0.067362
v -5.007684 1.388122 -0.715999
v -4.325021 -0.879078 -0.707123
v -2.221187 -0.879077 -5.596823
v -1.232690 1.810558 -5.099300
v -0.596554 1.388123 -3.861757
v -1.022300 -0.879077 -3.231551
v -5.504692 -0.879077 -3.119605
v -5.951228 0.839472 -1.901671
v -0.438514 -0.038992 -6.351035
v 0.376912 2.226709 -7.661287
v 1.192933 1.106670 -4.382798
v 2.799054 -0.038994 -2.521725
v 2.258646 2.246931 -1.331887
v -0.551338 2.228206 -1.980524
v 0.131325 -0.038994 -1.971647
v 2.235159 -0.038992 -6.861348
v 3.223656 2.650642 -6.363824
v 3.859792 2.228207 -5.126281
v 3.434047 -0.038993 -4.496076
v -1.048346 -0.038993 -4.384130
v -1.494882 1.679556 -3.166196
v 1.519085 -0.092603 -2.049949
v 2.334511 2.173098 -3.360202
v 3.150532 1.053059 -0.081712
v 4.756653 -0.092604 1.779361
v 4.216246 2.193321 2.969198
v 1.406261 2.174596 2.320561
v 2.088924 -0.092604 2.329438
v 4.192758 -0.092603 -2.560263
v 5.181255 2.597032 -2.062739
v 5.817390 2.174597 -0.825196
v 5.391645 -0.092603 -0.194991
v 0.909253 -0.092603 -0.083044
v 0.462718 1.625946 1.134889
v 0.764391 0.268902 1.954507
v 1.579818 2.534604 0.644255
v 2.395839 1.414564 3.922744
v 4.001959 0.268901 5.783817
v 3.461552 2.554826 6.973655
v 0.651568 2.536101 6.325017
v 1.334231 0.268901 6.333894
v 3.438065 0.268903 1.444193
v 4.426561 2.958537 1.941717
v 5.062697 2.536102 3.179260
v 4.636952 0.268902 3.809466
v 0.154560 0.268902 3.921412
v -0.291976 1.987451 5.139346
v -3.960392 -0.049676 1.505286
v -3.144965 2.216025 0.195033
v -2.328944 1.095986 3.473523
v -0.722824 -0.049677 5.334595
v -1.263232 2.236248 6.524433
v -4.073216 2.217523 5.875796
v -3.390553 -0.049677 5.884673
v -1.286719 -0.049676 0.994972
v -0.298222 2.639959 1.492496
v 0.337914 2.217524 2.730039
v -0.087831 -0.049676 3.360244
v -4.570224 -0.049676 3.472190
v -5.016759 1.668873 4.690124
v -3.933330 -0.161879 -3.022857
v -3.117903 2.103822 -4.333109
v -2.301882 0.983783 -1.054621
v -0.695762 -0.161880 0.806452
v -1.236169 2.124045 1.996290
v -4.046154 2.105319 1.347653
v -3.363490 -0.161880 1.356530
v -1.259656 -0.161879 -3.533171
v -0.271160 2.527755 -3.035647
v 0.364976 2.105320 -1.798104
v -0.060769 -0.161880 -1.167899
v -4.543161 -0.161880 -1.055953
v -4.989697 1.556669 0.161981
v -1.647680 0.000001 -1.960093
v -0.832253 2.265702 -3.270345
v -0.016232 1.145663 0.008144
v 1.589888 -0.000001 1.869216
v 1.049481 2.285924 3.059055
v -1.760504 2.267199 2.410417
v -1.077840 -0.000001 2.419294
v 1.025994 0.000001 -2.470407
v 2.014490 2.689635 -1.972883
v 2.650626 2.267200 -0.735340
v 2.224881 0.000000 -0.105135
v -2.257511 -0.000000 0.006811
v -2.704047 1.718549 1.224745
vt -0.002219 0.001706
vt -0.000637 1.000353
vt 0.499436 0.503361
vt 0.997185 0.001706
vt 0.997957 1.000708
vn 0.788357 -0.495001 -0.365332
vn 0.763463 0.021749 -0.645485
vn 0.799397 0.415075 -0.434369
vn 0.950091 -0.133352 -0.282036
vn 0.835183 0.253388 0.488122
vn -0.918410 0.019392 -0.395154
vn -0.777586 0.378637 -0.501991
vn -0.753784 0.180845 -0.631747
vn -0.168287 -0.234532 -0.957431
vn -0.024936 0.049943 -0.998441
vn -0.261246 0.512031 -0.818276
vn 0.355312 -0.247306 0.901439
vn 0.763463 0.021751 -0.645485
vn 0.950091 -0.133351 -0.282037
vn -0.918410 0.019393 -0.395154
vn -0.777586 0.378637 -0.501990
vn -0.261245 0.512031 -0.818276
vn 0.355312 -0.247305 0.901439
vn 0.799398 0.415074 -0.434369
vn 0.950091 -0.133353 -0.282036
vn 0.835183 0.253389 0.488122
vn -0.918410 0.019394 -0.395153
vn -0.777586 0.378636 -0.501991
vn -0.261246 0.512030 -0.818276
vn 0.355313 -0.247306 0.901439
vn 0.763463 0.021750 -0.645485
vn 0.799398 0.415075 -0.434369
vn -0.753785 0.180845 -0.631747
vn 0.835184 0.253388 0.488122
vn -0.918410 0.019393 -0.395153
vn 0.799398 0.415074 -0.434370
vn -0.753784 0.180844 -0.631747
vn 0.355313 -0.247305 0.901439
vn 0.950091 -0.133352 -0.282037
vn -0.777586 0.378636 -0.501990
s off
f 1/1/1 2/2/1 3/3/1
f 1/1/2 3/3/2 4/4/2
f 3/3/3 5/5/3 4/4/3
f 3/3/4 2/2/4 5/5/4
f 6/2/5 7/1/5 3/3/5
f 7/1/6 3/3/6 8/4/6
f 3/3/7 9/5/7 8/4/7
f 9/5/8 3/3/8 6/2/8
f 10/2/9 11/1/9 3/3/9
f 12/4/10 3/3/10 11/1/10
f 12/4/11 13/5/11 3/3/11
f 13/5/12 3/3/12 10/2/12
f 14/1/1 15/2/1 16/3/1
f 14/1/13 16/3/13 17/4/13
f 16/3/3 18/5/3 17/4/3
f 16/3/14 15/2/14 18/5/14
f 19/2/5 20/1/5 16/3/5
f 20/1/15 16/3/15 21/4/15
f 16/3/16 22/5/16 21/4/16
f 22/5/8 16/3/8 19/2/8
f 23/2/9 24/1/9 16/3/9
f 25/4/10 16/3/10 24/1/10
f 25/4/17 26/5/17 16/3/17
f 26/5/18 16/3/18 23/2/18
f 27/1/1 28/2/1 29/3/1
f 27/1/2 29/3/2 30/4/2
f 29/3/19 31/5/19 30/4/19
f 29/3/20 28/2/20 31/5/20
f 32/2/21 33/1/21 29/3/21
f 33/1/22 29/3/22 34/4/22
f 29/3/23 35/5/23 34/4/23
f 35/5/8 29/3/8 32/2/8
f 36/2/9 37/1/9 29/3/9
f 38/4/10 29/3/10 37/1/10
f 38/4/24 39/5/24 29/3/24
f 39/5/25 29/3/25 36/2/25
f 40/1/1 41/2/1 42/3/1
f 40/1/26 42/3/26 43/4/26
f 42/3/27 44/5/27 43/4/27
f 42/3/4 41/2/4 44/5/4
f 45/2/5 46/1/5 42/3/5
f 46/1/15 42/3/15 47/4/15
f 42/3/23 48/5/23 47/4/23
f 48/5/28 42/3/28 45/2/28
f 49/2/9 50/1/9 42/3/9
f 51/4/10 42/3/10 50/1/10
f 51/4/11 52/5/11 42/3/11
f 52/5/25 42/3/25 49/2/25
f 53/1/1 54/2/1 55/3/1
f 53/1/26 55/3/26 56/4/26
f 55/3/27 57/5/27 56/4/27
f 55/3/14 54/2/14 57/5/14
f 58/2/29 59/1/29 55/3/29
f 59/1/30 55/3/30 60/4/30
f 55/3/7 61/5/7 60/4/7
f 61/5/8 55/3/8 58/2/8
f 62/2/9 63/1/9 55/3/9
f 64/4/10 55/3/10 63/1/10
f 64/4/11 65/5/11 55/3/11
f 65/5/25 55/3/25 62/2/25
f 66/1/1 67/2/1 68/3/1
f 66/1/26 68/3/26 69/4/26
f 68/3/31 70/5/31 69/4/31
f 68/3/4 67/2/4 70/5/4
f 71/2/5 72/1/5 68/3/5
f 72/1/15 68/3/15 73/4/15
f 68/3/7 74/5/7 73/4/7
f 74/5/32 68/3/32 71/2/32
f 75/2/9 76/1/9 68/3/9
f 77/4/10 68/3/10 76/1/10
f 77/4/11 78/5/11 68/3/11
f 78/5/33 68/3/33 75/2/33
f 79/1/1 80/2/1 81/3/1
f 79/1/26 81/3/26 82/4/26
f 81/3/3 83/5/3 82/4/3
f 81/3/34 80/2/34 83/5/34
f 84/2/21 85/1/21 81/3/21
f 85/1/30 81/3/30 86/4/30
f 81/3/23 87/5/23 86/4/23
f 87/5/32 81/3/32 84/2/32
f 88/2/9 89/1/9 81/3/9
f 90/4/10 81/3/10 89/1/10
f 90/4/11 91/5/11 81/3/11
f 91/5/25 81/3/25 88/2/25
f 92/1/1 93/2/1 94/3/1
f 92/1/26 94/3/26 95/4/26
f 94/3/3 96/5/3 95/4/3
f 94/3/4 93/2/4 96/5/4
f 97/2/21 98/1/21 94/3/21
f 98/1/15 94/3/15 99/4/15
f 94/3/35 100/5/35 99/4/35
f 100/5/8 94/3/8 97/2/8
f 101/2/9 102/1/9 94/3/9
f 103/4/10 94/3/10 102/1/10
f 103/4/11 104/5/11 94/3/11
f 104/5/25 94/3/25 101/2/25
f 105/1/1 106/2/1 107/3/1
f 105/1/26 107/3/26 108/4/26
f 107/3/27 109/5/27 108/4/27
f 107/3/4 106/2/4 109/5/4
f 110/2/21 111/1/21 107/3/21
f 111/1/15 107/3/15 112/4/15
f 107/3/7 113/5/7 112/4/7
f 113/5/8 107/3/8 110/2/8
f 114/2/9 115/1/9 107/3/9
f 116/4/10 107/3/10 115/1/10
f 116/4/11 117/5/11 107/3/11
f 117/5/25 107/3/25 114/2/25
f 118/1/1 119/2/1 120/3/1
f 118/1/26 120/3/26 121/4/26
f 120/3/27 122/5/27 121/4/27
f 120/3/4 119/2/4 122/5/4
f 123/2/5 124/1/5 120/3/5
f 124/1/15 120/3/15 125/4/15
f 120/3/23 126/5/23 125/4/23
f 126/5/28 120/3/28 123/2/28
f 127/2/9 128/1/9 120/3/9
f 129/4/10 120/3/10 128/1/10
f 129/4/11 130/5/11 120/3/11
f 130/5/25 120/3/25 127/2/25
