# Blender v2.64 (sub 0) OBJ File: ''
# www.blender.org
o shr2.tga
v -2.627335 0.000001 -2.529508
v -1.327083 7.066575 -4.220394
v -0.025883 3.573247 0.010509
v 2.535183 -0.000001 2.412231
v 1.673467 7.129651 3.947721
v -2.807240 7.071248 3.110652
v -1.718688 -0.000001 3.122108
v 1.636015 0.000001 -3.188070
v 3.212239 8.388797 -2.546014
v 4.226600 7.071249 -0.948960
v 3.547721 0.000000 -0.135677
v -3.599752 -0.000000 0.008790
v -4.311783 5.360044 1.580538
vt -0.002219 0.001706
vt -0.000637 1.000353
vt 0.499436 0.503361
vt 0.997185 0.001706
vt 0.997957 1.000708
vn 0.835975 -0.268357 -0.478675
vn 0.691456 0.010071 -0.722348
vn 0.810775 0.215229 -0.544353
vn 0.936714 -0.067217 -0.343582
vn 0.804371 0.124766 0.580880
vn -0.882935 0.009532 -0.469398
vn -0.767355 0.191032 -0.612106
vn -0.692137 0.084896 -0.716756
vn -0.140131 -0.099844 -0.985086
vn -0.020204 0.020688 -0.999582
vn -0.242660 0.243154 -0.939144
vn 0.302150 -0.107518 0.947178
s off
f 1/1/1 2/2/1 3/3/1
f 1/1/2 3/3/2 4/4/2
f 3/3/3 5/5/3 4/4/3
f 3/3/4 2/2/4 5/5/4
f 6/2/5 7/1/5 3/3/5
f 7/1/6 3/3/6 8/4/6
f 3/3/7 9/5/7 8/4/7
f 9/5/8 3/3/8 6/2/8
f 10/2/9 11/1/9 3/3/9
f 12/4/10 3/3/10 11/1/10
f 12/4/11 13/5/11 3/3/11
f 13/5/12 3/3/12 10/2/12
