# Blender v2.64 (sub 0) OBJ File: ''
# www.blender.org
o Cube
v 7.477539 0.099764 -7.481445
v 6.902389 -1.818457 5.601918
v -6.582386 0.099764 4.832386
v -7.477536 0.099764 -7.399481
v 6.578105 0.162521 -7.014872
v 6.902384 -1.255957 5.601923
v -6.412958 0.662264 4.549304
v -7.368662 0.540627 -7.286958
v -7.477538 0.099764 -0.000002
v -6.582387 0.381014 4.832385
v -7.477537 0.381014 -7.481447
v -7.145103 0.662264 -0.000001
v -7.477539 0.381014 -0.000002
v -0.287576 -0.859347 7.208597
v 6.902387 -1.537207 5.601921
v -6.582387 0.521639 4.832385
v -0.287579 -0.296847 7.208598
v -6.582387 0.240389 4.832385
v -4.855701 -0.024678 -7.305107
v -4.357177 -0.024678 -7.256007
v -3.877811 -0.024678 -7.110593
v -3.436025 -0.024678 -6.874454
v -3.048797 -0.024678 -6.556664
v -2.731008 -0.024678 -6.169436
v -2.494868 -0.024678 -5.727649
v -2.349454 -0.024678 -5.248284
v -2.300354 -0.024678 -4.749761
v -4.855701 5.086014 -4.749761
v -2.349454 -0.024678 -4.251238
v -2.494868 -0.024678 -3.771873
v -2.731008 -0.024678 -3.330087
v -3.048797 -0.024678 -2.942859
v -3.436025 -0.024678 -2.625069
v -3.877813 -0.024678 -2.388929
v -4.357178 -0.024678 -2.243515
v -4.855701 -0.024678 -2.194415
v -5.354225 -0.024678 -2.243517
v -5.833591 -0.024678 -2.388929
v -6.275376 -0.024678 -2.625070
v -6.662604 -0.024678 -2.942860
v -6.980394 -0.024678 -3.330089
v -7.216534 -0.024678 -3.771874
v -7.361947 -0.024678 -4.251241
v -7.411046 -0.024678 -4.749764
v 4.220306 3.461419 -4.228051
v -7.361946 -0.024678 -5.248287
v 4.220306 3.461419 -8.774329
v -7.216532 -0.024678 -5.727653
v -0.325972 3.461419 -8.774329
v -6.980392 -0.024678 -6.169438
v -0.325972 3.461419 -4.228051
v -6.662601 -0.024678 -6.556666
v 4.220306 -1.084859 -4.228051
v -6.275372 -0.024678 -6.874456
v 4.220306 -1.084859 -8.774329
v -5.833586 -0.024678 -7.110595
v -0.325972 -1.084859 -8.774329
v -5.354220 -0.024678 -7.256009
v -0.325972 -1.084859 -4.228051
vt 0.517701 0.687203
vt 0.480011 0.697555
vt 0.408764 0.715130
vt 0.260306 0.734132
vt 0.413042 0.338309
vt 0.261195 0.000000
vt 0.064319 0.941907
vt 0.028123 0.941778
vt 0.024217 0.576424
vt 0.126779 0.895354
vt 0.249376 0.729066
vt 0.071972 0.207843
vt 0.260306 0.704028
vt 0.060125 0.103922
vt 0.048277 0.000000
vt 0.017771 0.890220
vt 0.011848 0.838260
vt 0.005924 0.786299
vt 0.000000 0.734338
vt 0.000521 0.368581
vt 0.350398 0.981982
vt 0.353111 1.086953
vt 0.263614 1.042829
vt 0.260306 0.983308
vt 0.277958 0.754870
vt 0.427148 0.818301
vt 0.438826 0.876416
vt 0.350076 0.877082
vt 0.260971 0.878394
vt 0.414867 0.928866
vt 0.415028 0.981316
vt 0.414706 0.876416
vt 0.415189 1.033766
vt 0.413159 1.086302
vt 0.852040 0.000590
vt 0.842361 1.902080
vt 0.845839 0.000323
vt 0.734031 0.000040
vt 0.729733 1.906864
vt 0.729059 0.000004
vt 0.840403 0.000000
vt 0.723215 0.000000
vt 0.858766 0.000790
vt 0.865760 0.000914
vt 0.872752 0.000960
vt 0.879473 0.000924
vt 0.885666 0.000809
vt 0.638615 0.000448
vt 0.680387 1.906863
vt 0.632966 0.000599
vt 0.644970 0.000312
vt 0.651788 0.000195
vt 0.658805 0.000103
vt 0.665753 0.000038
vt 0.672365 0.000003
vt 0.678386 0.000000
vt 0.683584 0.000029
vt 0.522357 0.000491
vt 0.523422 1.903341
vt 0.517701 0.000849
vt 0.527950 0.000224
vt 0.534265 0.000058
vt 0.541060 0.000000
vt 0.548074 0.000051
vt 0.555036 0.000211
vt 0.561680 0.000472
vt 0.567750 0.000824
vt 0.573013 0.001255
vt 0.689424 0.000415
vt 0.683584 0.000562
vt 0.695913 0.000283
vt 0.702803 0.000172
vt 0.709829 0.000085
vt 0.716721 0.000027
vt 0.936243 0.063986
vt 1.000000 0.064182
vt 0.999804 0.127972
vt 0.936047 0.127776
vt 1.000000 0.063790
vt 0.936047 0.000196
vt 0.999804 0.000000
vt 0.835216 1.690719
vt 0.788512 1.693997
vt 0.793699 0.003278
vt 0.783310 1.695662
vt 0.734031 1.696298
vt 0.739233 0.000636
vt 0.788512 0.000000
vt 0.936047 1.695621
vt 0.890860 1.693163
vt 0.885666 0.000000
vt 0.930853 0.002457
vt 0.627764 1.695660
vt 0.573013 1.696130
vt 0.578215 0.000470
vt 0.632966 0.000000
vt 0.415189 0.908586
vt 0.416560 0.901692
vt 0.415189 0.915615
vt 0.416559 0.922508
vt 0.419249 0.895198
vt 0.419247 0.929002
vt 0.423152 0.889354
vt 0.423150 0.934846
vt 0.428120 0.884383
vt 0.428117 0.939816
vt 0.433961 0.880478
vt 0.433958 0.943721
vt 0.440452 0.877788
vt 0.440448 0.946410
vt 0.447342 0.876416
vt 0.447338 0.947781
vt 0.454367 0.876416
vt 0.454364 0.947781
vt 0.461257 0.877787
vt 0.461254 0.946409
vt 0.467748 0.880476
vt 0.467744 0.943719
vt 0.473589 0.884381
vt 0.473586 0.939814
vt 0.478556 0.889351
vt 0.478554 0.934843
vt 0.482459 0.895195
vt 0.482457 0.928999
vt 0.485147 0.901689
vt 0.485146 0.922505
vt 0.486517 0.908582
vt 0.486517 0.915611
vn 0.000000 -1.000000 0.000000
vn -0.105110 -0.987192 -0.120014
vn -0.163617 -0.975031 -0.150147
vn 0.165947 0.985773 -0.026707
vn 0.160509 0.986803 -0.021396
vn 0.026198 0.998648 0.044899
vn 0.154807 0.982193 0.106447
vn 0.124683 0.986335 0.107687
vn 0.999035 0.000008 0.043919
vn 0.999035 0.000006 0.043919
vn -0.042430 0.904663 0.424011
vn -0.353163 0.000003 0.935562
vn -0.353163 0.000000 0.935562
vn -0.353163 0.000001 0.935562
vn -0.353163 -0.000004 0.935562
vn 0.218082 -0.000001 0.975930
vn 0.218082 -0.000007 0.975931
vn 0.218082 -0.000006 0.975931
vn -0.707819 0.706377 0.004897
vn 0.033281 0.763366 -0.645108
vn 0.027509 -0.279690 -0.959696
vn -0.000738 0.990885 -0.134705
vn -1.000000 -0.000003 -0.000000
vn -0.983272 0.000000 0.182142
vn -0.983272 -0.000004 0.182141
vn -0.983272 -0.000006 0.182141
vn -0.545292 0.833640 0.087757
vn -0.642843 0.759836 0.096969
vn -0.983272 0.000001 0.182142
vn -0.259888 0.445488 -0.856737
vn 0.087754 0.445488 -0.890977
vn -0.087751 0.445488 -0.890977
vn 0.259888 0.445488 -0.856737
vn -0.422035 0.445488 -0.789574
vn -0.567963 0.445488 -0.692068
vn -0.692066 0.445488 -0.567965
vn -0.789572 0.445488 -0.422037
vn -0.856737 0.445488 -0.259888
vn -0.890977 0.445488 -0.087754
vn -0.890977 0.445488 0.087752
vn -0.856738 0.445488 0.259886
vn -0.789573 0.445488 0.422037
vn -0.692067 0.445488 0.567964
vn -0.567965 0.445488 0.692067
vn -0.422038 0.445488 0.789572
vn -0.259886 0.445488 0.856738
vn -0.087756 0.445488 0.890976
vn 0.087754 0.445488 0.890977
vn 0.259888 0.445488 0.856737
vn 0.422035 0.445488 0.789574
vn 0.567965 0.445488 0.692067
vn 0.692067 0.445489 0.567964
vn 0.789573 0.445488 0.422035
vn 0.856737 0.445488 0.259889
vn 0.890977 0.445488 0.087753
vn 0.890977 0.445488 -0.087753
vn 0.856737 0.445488 -0.259889
vn 0.789573 0.445488 -0.422035
vn 0.692067 0.445488 -0.567964
vn 0.567965 0.445488 -0.692066
vn 0.422035 0.445488 -0.789574
vn -0.000000 1.000000 0.000000
vn 0.000000 -0.000000 1.000000
vn 1.000000 -0.000000 0.000000
vn 0.000000 0.000000 -1.000000
vn -1.000000 0.000000 0.000000
s off
f 3/1/1 9/2/1 4/3/1
f 1/4/1 3/1/1 4/3/1
f 1/4/2 14/5/2 3/1/2
f 1/4/3 2/6/3 14/5/3
f 12/7/4 7/8/4 17/9/4
f 8/10/5 12/7/5 17/9/5
f 5/11/6 8/10/6 17/9/6
f 5/11/7 17/9/7 6/12/7
f 1/13/8 5/11/8 6/12/8
f 1/13/9 6/12/9 15/14/9
f 1/13/10 15/14/10 2/15/10
f 17/9/11 7/8/11 16/16/11
f 17/9/12 16/16/12 10/17/12
f 17/9/13 10/17/13 18/18/13
f 17/9/14 18/18/14 3/19/14
f 17/9/15 3/19/15 14/20/15
f 6/12/16 17/9/16 14/20/16
f 2/15/17 15/14/17 14/20/17
f 15/14/18 6/12/18 14/20/18
f 13/21/19 12/22/19 8/23/19
f 13/21/19 8/23/19 11/24/19
f 5/25/20 11/26/20 8/27/20
f 5/25/21 4/3/21 11/26/21
f 5/25/22 1/4/22 4/3/22
f 9/28/23 13/21/23 11/24/23
f 9/28/23 11/24/23 4/29/23
f 18/30/24 10/31/24 13/21/24
f 18/30/25 13/21/25 9/28/25
f 3/32/26 18/30/26 9/28/26
f 16/33/27 7/34/27 12/22/27
f 16/33/28 12/22/28 13/21/28
f 10/31/29 16/33/29 13/21/29
f 56/35/30 28/36/30 58/37/30
f 19/38/31 28/39/31 20/40/31
f 58/37/32 28/36/32 19/41/32
f 20/40/33 28/39/33 21/42/33
f 54/43/34 28/36/34 56/35/34
f 52/44/35 28/36/35 54/43/35
f 50/45/36 28/36/36 52/44/36
f 48/46/37 28/36/37 50/45/37
f 46/47/38 28/36/38 48/46/38
f 44/48/39 28/49/39 46/50/39
f 43/51/40 28/49/40 44/48/40
f 42/52/41 28/49/41 43/51/41
f 41/53/42 28/49/42 42/52/42
f 40/54/43 28/49/43 41/53/43
f 39/55/44 28/49/44 40/54/44
f 38/56/45 28/49/45 39/55/45
f 37/57/46 28/49/46 38/56/46
f 36/58/47 28/59/47 37/60/47
f 35/61/48 28/59/48 36/58/48
f 34/62/49 28/59/49 35/61/49
f 33/63/50 28/59/50 34/62/50
f 32/64/51 28/59/51 33/63/51
f 31/65/52 28/59/52 32/64/52
f 30/66/53 28/59/53 31/65/53
f 29/67/54 28/59/54 30/66/54
f 27/68/55 28/59/55 29/67/55
f 26/69/56 28/39/56 27/70/56
f 25/71/57 28/39/57 26/69/57
f 24/72/58 28/39/58 25/71/58
f 23/73/59 28/39/59 24/72/59
f 22/74/60 28/39/60 23/73/60
f 21/42/61 28/39/61 22/74/61
f 45/75/62 47/76/62 49/77/62
f 45/75/62 49/77/62 51/78/62
f 59/79/1 57/75/1 55/80/1
f 59/79/1 55/80/1 53/81/1
f 45/82/63 51/83/63 59/84/63
f 45/82/63 59/84/63 53/41/63
f 47/85/64 45/86/64 53/87/64
f 47/85/64 53/87/64 55/88/64
f 49/89/65 47/90/65 55/91/65
f 49/89/65 55/91/65 57/92/65
f 51/93/66 49/94/66 57/95/66
f 51/93/66 57/95/66 59/96/66
f 19/97/1 20/98/1 58/99/1
f 20/98/1 56/100/1 58/99/1
f 20/98/1 21/101/1 56/100/1
f 21/101/1 54/102/1 56/100/1
f 21/101/1 22/103/1 54/102/1
f 22/103/1 52/104/1 54/102/1
f 22/103/1 23/105/1 52/104/1
f 23/105/1 50/106/1 52/104/1
f 23/105/1 24/107/1 50/106/1
f 24/107/1 48/108/1 50/106/1
f 24/107/1 25/109/1 48/108/1
f 25/109/1 46/110/1 48/108/1
f 25/109/1 26/111/1 46/110/1
f 26/111/1 44/112/1 46/110/1
f 26/111/1 27/113/1 44/112/1
f 27/113/1 43/114/1 44/112/1
f 27/113/1 29/115/1 43/114/1
f 29/115/1 42/116/1 43/114/1
f 29/115/1 30/117/1 42/116/1
f 30/117/1 41/118/1 42/116/1
f 30/117/1 31/119/1 41/118/1
f 31/119/1 40/120/1 41/118/1
f 31/119/1 32/121/1 40/120/1
f 32/121/1 39/122/1 40/120/1
f 32/121/1 33/123/1 39/122/1
f 33/123/1 38/124/1 39/122/1
f 33/123/1 34/125/1 38/124/1
f 34/125/1 37/126/1 38/124/1
f 34/125/1 35/127/1 37/126/1
f 35/127/1 36/128/1 37/126/1
